<svg width="43" height="22" viewBox="0 0 43 22" fill="none" xmlns="http://www.w3.org/2000/svg">
<path d="M26.4857 14.8585L25.985 13.3782H22.9156L22.415 14.8585H21L23.7102 7.1415H25.2449L27.9551 14.8585H26.4857ZM24.4503 8.86122L23.351 12.1156H25.5497L24.4503 8.86122Z" fill="#616161"/>
<path d="M34.7581 12.3986C34.7218 12.7034 34.6456 13.0045 34.5295 13.302C34.4134 13.5923 34.2429 13.8535 34.0179 14.0857C33.7277 14.3832 33.3903 14.6118 33.0057 14.7714C32.6211 14.9238 32.222 15 31.8084 15C31.3948 15 30.9993 14.9311 30.622 14.7932C30.252 14.6553 29.9182 14.4376 29.6207 14.1401C29.4102 13.9297 29.2397 13.7084 29.1091 13.4762C28.9857 13.244 28.8914 12.9973 28.8261 12.7361C28.7608 12.4748 28.7173 12.2027 28.6955 11.9197C28.6737 11.6295 28.6628 11.3247 28.6628 11.0054C28.6628 10.6934 28.6737 10.3923 28.6955 10.102C28.7173 9.81179 28.7608 9.53605 28.8261 9.27483C28.8914 9.01361 28.9857 8.76689 29.1091 8.53469C29.2397 8.30249 29.4102 8.08118 29.6207 7.87075C29.9182 7.57324 30.252 7.35556 30.622 7.21769C30.9993 7.07256 31.3948 7 31.8084 7C32.222 7 32.6211 7.07619 33.0057 7.22857C33.3903 7.3737 33.7277 7.59501 34.0179 7.89252C34.2429 8.12472 34.4134 8.38594 34.5295 8.67619C34.6456 8.96644 34.7218 9.26395 34.7581 9.56871H33.3213C33.3068 9.40181 33.2706 9.25669 33.2125 9.13333C33.1545 9.00272 33.0746 8.87574 32.973 8.75238C32.8497 8.59274 32.6828 8.47302 32.4724 8.3932C32.2692 8.31338 32.0479 8.27347 31.8084 8.27347C31.5835 8.27347 31.3658 8.31701 31.1554 8.40408C30.9522 8.49116 30.7744 8.61814 30.622 8.78503C30.4914 8.9229 30.3898 9.08254 30.3173 9.26395C30.2447 9.44535 30.1903 9.63764 30.154 9.84082C30.125 10.0367 30.1068 10.2363 30.0996 10.4395C30.0923 10.6426 30.0887 10.8313 30.0887 11.0054C30.0887 11.1796 30.0923 11.3683 30.0996 11.5714C30.1068 11.7746 30.125 11.9778 30.154 12.181C30.1903 12.3769 30.2447 12.5655 30.3173 12.7469C30.3898 12.9283 30.4914 13.088 30.622 13.2259C30.7744 13.3927 30.9522 13.5197 31.1554 13.6068C31.3658 13.6939 31.5835 13.7374 31.8084 13.7374C32.0479 13.7374 32.2692 13.6975 32.4724 13.6177C32.6828 13.5306 32.8497 13.4073 32.973 13.2476C33.1762 13.0009 33.2923 12.7179 33.3213 12.3986H34.7581Z" fill="#616161"/>
<path d="M40.9723 14.8585V11.4952H37.8049V14.8585H36.4008V7.1415H37.8049V10.1565H40.9723V7.1415H42.3764V14.8585H40.9723Z" fill="#616161"/>
<g clip-path="url(#clip0_228_250)">
<path d="M1 18H16" stroke="#616161" stroke-width="1.2" stroke-linecap="round" stroke-linejoin="round"/>
<path d="M1 16H16" stroke="#616161" stroke-width="1.2" stroke-linecap="round" stroke-linejoin="round"/>
<path d="M16 8H1L8.5 4L16 8Z" fill="#616161" stroke="#616161" stroke-linejoin="round"/>
<path d="M1 14V10H2.6346C2.92595 10 3.16149 10.0574 3.34122 10.1722C3.52095 10.2852 3.65244 10.4278 3.73568 10.6C3.81892 10.7722 3.86055 10.9463 3.86055 11.1222C3.86055 11.3463 3.80852 11.5324 3.70447 11.6806C3.6023 11.8287 3.46136 11.9278 3.28163 11.9778V11.8389C3.53703 11.8907 3.72811 12.0065 3.85487 12.1861C3.98352 12.3657 4.04784 12.5667 4.04784 12.7889C4.04784 13.0278 4.00244 13.238 3.91163 13.4194C3.82271 13.6009 3.68649 13.7435 3.50298 13.8472C3.31946 13.9491 3.08865 14 2.81054 14H1ZM1.78324 13.2889H2.73108C2.83514 13.2889 2.92784 13.2676 3.00919 13.225C3.09054 13.1806 3.15392 13.1194 3.19933 13.0417C3.24663 12.962 3.27028 12.8685 3.27028 12.7611C3.27028 12.6667 3.25041 12.5824 3.21068 12.5083C3.17095 12.4343 3.11041 12.3759 3.02906 12.3333C2.9496 12.2889 2.85027 12.2667 2.73108 12.2667H1.78324V13.2889ZM1.78324 11.5611H2.62325C2.71027 11.5611 2.78784 11.5463 2.85595 11.5167C2.92406 11.487 2.97798 11.4417 3.01771 11.3806C3.05744 11.3176 3.0773 11.237 3.0773 11.1389C3.0773 11.0167 3.03852 10.9139 2.96095 10.8306C2.88338 10.7472 2.77081 10.7056 2.62325 10.7056H1.78324V11.5611Z" fill="#616161"/>
<path d="M4.33008 14L5.57873 10H6.7309L7.97955 14H7.18495L6.07252 10.4722H6.22009L5.12468 14H4.33008ZM5.07927 13.1667V12.4611H7.23603V13.1667H5.07927Z" fill="#616161"/>
<path d="M8.48804 14V10H9.2713L11.0478 12.6667V10H11.831V14H11.0478L9.2713 11.3333V14H8.48804Z" fill="#616161"/>
<path d="M12.623 14V10H13.3949V11.8444L14.95 10H15.8922L14.1838 11.9722L16 14H15.0238L13.3949 12.1778V14H12.623Z" fill="#616161"/>
</g>
<defs>
<clipPath id="clip0_228_250">
<rect width="17" height="16" fill="white" transform="translate(0 3)"/>
</clipPath>
</defs>
</svg>
