<svg width="50" height="64" viewBox="0 0 50 64" fill="none" xmlns="http://www.w3.org/2000/svg">
<mask id="mask0_30_1739" style="mask-type:alpha" maskUnits="userSpaceOnUse" x="0" y="0" width="48" height="64">
<path d="M0 0H47.088V64H0V0Z" fill="white"/>
</mask>
<g mask="url(#mask0_30_1739)">
<path fill-rule="evenodd" clip-rule="evenodd" d="M38.539 47.322C35.6892 49.627 32.8395 51.5253 29.8541 53.6949L27.5472 55.322H27.1401C27.1401 52.7456 26.4616 49.7628 28.3614 48C31.2111 44.6101 34.1965 41.4916 36.6389 37.9662L40.4388 32.5424C40.8459 32.5424 40.9813 33.0847 40.9813 33.3559C42.3385 37.9662 42.7456 42.7118 38.539 47.322ZM23.4762 45.9662H23.3405L11.806 32.2712C11.1275 31.1865 10.449 30.1017 10.3133 28.6102C10.3133 27.5254 10.3133 26.4407 11.1275 25.0847L11.9417 24C11.9417 24 19.4052 13.4237 23.4762 8.40679H23.6119C27.7895 13.8874 31.8613 19.4477 35.8251 25.0847C36.7748 26.4407 36.7748 27.5254 36.6389 28.6102C36.6389 30.1017 35.9605 31.1865 35.2821 32.2712L23.7476 45.9662H23.4762ZM19.948 55.322H19.5409L17.0983 53.6949C14.2486 51.5253 11.2632 49.627 8.54919 47.322C4.34247 42.7118 4.74958 37.9662 6.1066 33.3559C6.1066 33.0847 6.24228 32.5424 6.64939 32.5424L10.3133 37.9662C12.8916 41.4916 15.877 44.6101 18.7267 48C20.6265 49.7628 19.8123 52.7456 19.948 55.322ZM46.5451 33.4915C45.8667 31.322 45.0524 29.6949 43.6956 27.2542L42.2027 24.9492C36.3676 16.1356 24.6975 0.949152 23.6119 0H23.3405C22.3906 0.949152 10.7204 16.1356 4.8853 24.9492L3.39258 27.2542C2.03558 29.6949 1.08568 31.322 0.54288 33.4915C-0.135621 36.6101 -0.135621 40.5422 0.407179 43.7966C1.08568 46.6439 3.79968 49.4916 6.51367 51.6612L10.5847 55.051C14.8269 58.1124 19.1248 61.0958 23.4762 64L23.7476 63.8645C24.8332 63.322 36.5035 55.051 36.5035 55.051L40.5746 51.6612C43.2885 49.4916 46.0025 46.6439 46.5451 43.7966C47.2238 40.5422 47.2238 36.6101 46.5451 33.4915Z" fill="#1F4396"/>
</g>
</svg>
