<svg width="139" height="64" viewBox="0 0 139 64" fill="none" xmlns="http://www.w3.org/2000/svg">
<path fill-rule="evenodd" clip-rule="evenodd" d="M38.539 47.322C35.6892 49.627 32.8395 51.5253 29.8541 53.6949L27.5472 55.322H27.1401C27.1401 52.7456 26.4616 49.7628 28.3614 48C31.2111 44.6101 34.1965 41.4916 36.6389 37.9662L40.4388 32.5424C40.8459 32.5424 40.9813 33.0847 40.9813 33.3559C42.3385 37.9662 42.7456 42.7118 38.539 47.322ZM23.4762 45.9662H23.3405L11.806 32.2712C11.1275 31.1865 10.449 30.1017 10.3133 28.6102C10.3133 27.5254 10.3133 26.4407 11.1275 25.0847L11.9417 24C11.9417 24 19.4052 13.4237 23.4762 8.40679H23.6119C27.7895 13.8874 31.8613 19.4477 35.8251 25.0847C36.7748 26.4407 36.7748 27.5254 36.6389 28.6102C36.6389 30.1017 35.9605 31.1865 35.2821 32.2712L23.7476 45.9662H23.4762ZM19.948 55.322H19.5409L17.0983 53.6949C14.2486 51.5253 11.2632 49.627 8.54919 47.322C4.34247 42.7118 4.74958 37.9662 6.1066 33.3559C6.1066 33.0847 6.24228 32.5424 6.64939 32.5424L10.3133 37.9662C12.8916 41.4916 15.877 44.6101 18.7267 48C20.6265 49.7628 19.8123 52.7456 19.948 55.322ZM46.5451 33.4915C45.8667 31.322 45.0524 29.6949 43.6956 27.2542L42.2027 24.9492C36.3676 16.1356 24.6975 0.949152 23.6119 0H23.3405C22.3906 0.949152 10.7204 16.1356 4.8853 24.9492L3.39258 27.2542C2.03558 29.6949 1.08568 31.322 0.54288 33.4915C-0.135621 36.6101 -0.135621 40.5422 0.407179 43.7966C1.08568 46.6439 3.79968 49.4916 6.51367 51.6612L10.5847 55.051C14.8269 58.1124 19.1248 61.0958 23.4762 64L23.7476 63.8645C24.8332 63.322 36.5035 55.051 36.5035 55.051L40.5746 51.6612C43.2885 49.4916 46.0025 46.6439 46.5451 43.7966C47.2238 40.5422 47.2238 36.6101 46.5451 33.4915Z" fill="#1F4396"/>
<path d="M62.1469 22.8895V18.033H67.1915V22.8895H62.1469ZM62.2972 45.1766V25.6001H67.0784V45.1766H62.2972Z" fill="#1F4396"/>
<path d="M93.888 27.0306C93.888 28.3106 93.6874 29.4777 93.2856 30.5318C92.8842 31.5859 92.2819 32.4894 91.4787 33.2424C90.7008 33.9953 89.7219 34.5851 88.5422 35.0118C87.3628 35.4133 86.0074 35.6142 84.4764 35.6142H78.8295V45.1765H74.0106V18.4847H84.4764C86.0074 18.4847 87.3628 18.6981 88.5422 19.1247C89.7219 19.5263 90.7008 20.1035 91.4787 20.8565C92.2819 21.5843 92.8842 22.4753 93.2856 23.5294C93.6874 24.5835 93.888 25.7506 93.888 27.0306ZM88.9941 27.0682C88.9941 25.7882 88.6176 24.7467 87.8645 23.9435C87.1118 23.1404 85.9196 22.7389 84.288 22.7389H78.8295V31.36H84.288C85.9196 31.36 87.1118 30.971 87.8645 30.193C88.6176 29.3898 88.9941 28.3482 88.9941 27.0682Z" fill="#1F4396"/>
<path d="M114.829 44.9508C114.428 45.1264 114.077 45.2519 113.776 45.3269C113.499 45.4276 113.073 45.4777 112.496 45.4777C111.467 45.4777 110.676 45.2018 110.124 44.6496C109.571 44.0974 109.258 43.4574 109.183 42.7296C108.731 43.5325 107.978 44.2229 106.924 44.8C105.869 45.3774 104.64 45.6658 103.234 45.6658C102.055 45.6658 101.026 45.5029 100.147 45.1765C99.2689 44.8253 98.5283 44.3733 97.926 43.8212C97.3489 43.2441 96.9095 42.5913 96.6083 41.8635C96.3071 41.1108 96.1567 40.3325 96.1567 39.5296C96.1567 38.6009 96.3199 37.7725 96.646 37.0446C96.9973 36.3168 97.4744 35.6896 98.0767 35.1624C98.6791 34.6353 99.3816 34.2338 100.185 33.9577C100.988 33.6565 101.854 33.4683 102.783 33.393L108.543 32.9789V31.7742C108.543 30.8456 108.317 30.1051 107.865 29.553C107.438 28.9757 106.56 28.6871 105.229 28.6871C104.125 28.6871 103.259 28.9256 102.632 29.4024C102.029 29.8793 101.703 30.5695 101.653 31.473H97.0979C97.1733 30.3687 97.4239 29.4149 97.8506 28.6118C98.3025 27.8087 98.8924 27.1561 99.6202 26.6542C100.348 26.1271 101.189 25.7381 102.143 25.4871C103.096 25.2361 104.125 25.1107 105.229 25.1107C106.911 25.1107 108.405 25.4118 109.709 26.0142C111.04 26.5914 111.994 27.6205 112.571 29.1012C112.822 29.7287 112.972 30.3812 113.023 31.0589C113.098 31.7365 113.136 32.4016 113.136 33.0542V40.32C113.136 40.7719 113.211 41.098 113.361 41.2989C113.537 41.4745 113.826 41.5623 114.227 41.5623C114.428 41.5623 114.566 41.5499 114.641 41.5246C114.717 41.5246 114.779 41.5122 114.829 41.4869V44.9508ZM108.543 36.48L103.573 36.8565C102.845 36.9067 102.193 37.1453 101.616 37.5719C101.038 37.9986 100.749 38.6133 100.749 39.4165C100.749 40.1696 101.026 40.7719 101.578 41.2235C102.155 41.6501 102.808 41.8635 103.536 41.8635C105.016 41.8635 106.221 41.4869 107.149 40.7342C108.078 39.9563 108.543 38.8391 108.543 37.3835V36.48Z" fill="#1F4396"/>
<path d="M127.771 48.5269C127.52 49.1797 127.219 49.7945 126.868 50.3719C126.541 50.9742 126.14 51.5012 125.663 51.9531C125.186 52.4046 124.621 52.7563 123.969 53.0069C123.341 53.2832 122.601 53.4212 121.748 53.4212C120.97 53.4212 120.292 53.371 119.714 53.2708C119.162 53.1701 118.635 53.0574 118.133 52.9319V49.0165C118.434 49.0667 118.685 49.1168 118.886 49.1669C119.112 49.2174 119.313 49.2551 119.489 49.28C119.69 49.3052 119.878 49.3177 120.053 49.3177C120.254 49.3429 120.493 49.3554 120.769 49.3554C121.195 49.3554 121.61 49.2551 122.011 49.0542C122.438 48.8533 122.777 48.4644 123.028 47.8869L124.157 45.1388L116.439 25.6H121.597L126.717 39.7554L131.611 25.6H136.392L127.771 48.5269Z" fill="#1F4396"/>
</svg>
