<svg width="131" height="64" viewBox="0 0 131 64" fill="none" xmlns="http://www.w3.org/2000/svg">
<path d="M9.00119 28.3524H15.2353V0H9.00119V28.3524ZM17.1998 28.3524H19.1319V0H17.1997L17.1998 28.3524ZM20.8157 28.3524H24.2734V0H20.8157V28.3524ZM27.6075 28.3524H29.5397V0H27.6075V28.3524ZM30.3793 28.3524H31.868V0H30.3793V28.3524ZM4.26042 64H6.1925V0H4.26042V64ZM0 64H3.45773V0H0V64ZM42.1938 28.3524H48.4278V0H42.1938V28.3524ZM50.3923 28.3524H52.3245V0H50.3923V28.3524ZM54.0083 28.3524H57.4661V0H54.0083V28.3524ZM60.8002 28.3524H62.7312V0H60.799L60.8002 28.3524ZM63.5719 28.3524H65.0606V0H63.5719V28.3524ZM37.453 28.3524H39.3852V0H37.453V28.3524ZM33.1927 28.3524H36.6504V0H33.1927V28.3524ZM67.5101 28.3524H70.969V0H67.5101V28.3524ZM74.3019 28.3524H76.2341V0H74.3019V28.3524ZM77.0749 28.3524H78.5636V0H77.0749V28.3524ZM84.1474 28.3524H86.0796V0H84.1474V28.3524ZM79.8871 28.3524H83.3447V0H79.887L79.8871 28.3524ZM88.6468 28.3524H90.579V0H88.6468V28.3524ZM91.4198 28.3524H92.9084V0H91.4197L91.4198 28.3524ZM98.4923 28.3524H100.424V0H98.4922L98.4923 28.3524ZM94.2331 28.3524H97.6908V0H94.2331V28.3524ZM102.108 28.3524H108.342V0H102.108V28.3524ZM110.308 28.3524H112.24V0H110.308V28.3524ZM113.923 28.3524H117.38V0H113.923V28.3524ZM120.716 28.3524H122.648V0H120.716V28.3524ZM123.487 28.3524H124.976V0H123.487V28.3524ZM127.426 64H130.885V0H127.426V64Z" fill="#231F20"/>
<path d="M9.30488 62.7692V30.3153H20.4115C22.6715 30.3153 24.4836 30.6394 25.8544 31.2979C27.2184 31.955 28.2866 32.9668 29.0581 34.3344C29.8365 35.6943 30.2222 37.1213 30.2222 38.6181C30.2222 40.0009 29.878 41.3076 29.1956 42.5308C28.513 43.7552 27.4805 44.7442 26.0958 45.5001C27.887 46.0738 29.2648 47.0564 30.2223 48.4467C31.1866 49.8295 31.6693 51.468 31.6693 53.3572C31.6693 54.883 31.3737 56.2962 30.787 57.6029C30.2015 58.9097 29.4785 59.9139 28.617 60.6242C27.7555 61.327 26.6745 61.8626 25.3787 62.226C24.076 62.5882 22.4845 62.7705 20.5975 62.7705L9.30488 62.7692ZM13.2327 43.9578H19.6331C21.3689 43.9578 22.6162 43.8287 23.368 43.5805C24.3669 43.2563 25.1176 42.7118 25.62 41.9572C26.1236 41.2012 26.3787 40.2579 26.3787 39.1169C26.3787 38.0369 26.1443 37.0846 25.6696 36.2692C25.2007 35.4461 24.5263 34.8788 23.6509 34.5762C22.7755 34.2748 21.273 34.1228 19.1514 34.1228H13.2327V43.9578ZM13.2327 58.9617H20.6055C21.8736 58.9617 22.7616 58.9084 23.2791 58.8033C24.1753 58.6298 24.9329 58.3348 25.5392 57.9195C26.1454 57.5042 26.642 56.9001 27.0336 56.1062C27.4263 55.3135 27.6191 54.3993 27.6191 53.3635C27.6191 52.1479 27.3373 51.0969 26.7645 50.1979C26.1998 49.2989 25.4144 48.672 24.4085 48.3099C23.4096 47.9477 21.9624 47.7654 20.0812 47.7654H13.2327V58.9617ZM35.2253 51.0058C35.2253 46.6625 36.3281 43.4437 38.5398 41.3519C40.3795 39.6146 42.6327 38.746 45.2854 38.746C48.227 38.746 50.6384 39.8033 52.5127 41.9192C54.3801 44.0275 55.3168 46.95 55.3168 50.674C55.3168 53.6965 54.9033 56.0682 54.0764 57.7979C53.2495 59.5276 52.0438 60.8724 50.4593 61.8322C48.8818 62.7908 47.1517 63.2669 45.2854 63.2669C42.2815 63.2669 39.8563 62.2171 38.0027 60.1089C36.1491 58.0018 35.2253 54.9641 35.2253 51.0058ZM38.9462 51.0134C38.9462 54.0208 39.5456 56.2708 40.7444 57.7599C41.9501 59.2554 43.4595 60.0037 45.2854 60.0037C47.0906 60.0037 48.593 59.2566 49.7975 57.7523C50.9963 56.2493 51.5968 53.9599 51.5968 50.8855C51.5968 47.9845 50.9906 45.7863 49.7849 44.2985C48.578 42.803 47.0766 42.0547 45.2854 42.0547C43.4596 42.0547 41.9501 42.7954 40.7444 44.2833C39.5456 45.7711 38.9462 48.0149 38.9462 51.0134ZM59.4987 62.7692H63.1366V30.3153H59.4987V62.7692ZM83.4002 55.154L87.1616 55.6972C86.5762 58.0917 85.4801 59.9581 83.8818 61.2801C82.2834 62.6021 80.2439 63.2669 77.7562 63.2669C74.6288 63.2669 72.1481 62.2095 70.3154 60.0936C68.4825 57.9865 67.5667 55.0172 67.5667 51.202C67.5667 47.2589 68.4894 44.192 70.3431 42.0166C72.1966 39.8336 74.6011 38.746 77.5565 38.746C80.416 38.746 82.7512 39.8108 84.5631 41.9496C86.3752 44.087 87.2841 47.0943 87.2841 50.969C87.2841 51.2033 87.2771 51.5579 87.2645 52.0264H71.2866C71.424 54.6019 72.0857 56.581 73.2845 57.9486C74.4764 59.3161 75.972 60.0037 77.7562 60.0037C79.0867 60.0037 80.2231 59.6188 81.1597 58.8476C82.1044 58.0777 82.8493 56.8457 83.4002 55.154ZM71.4944 48.762H83.4418C83.2823 46.7828 82.8216 45.3026 82.0698 44.3124C80.9195 42.779 79.417 42.0078 77.5772 42.0078C75.9095 42.0078 74.5122 42.6207 73.3746 43.8439C72.2451 45.0684 71.618 46.7081 71.4944 48.762ZM99.6541 59.2111L100.15 62.7312C99.1298 62.9655 98.2139 63.0858 97.4147 63.0858C96.0982 63.0858 95.0796 62.8592 94.3485 62.3983C93.6256 61.9373 93.115 61.3409 92.8194 60.5926C92.5226 59.8454 92.3783 58.274 92.3783 55.8783V42.3256H89.6908V39.2435H92.3782V33.4264L96.0162 31.032V39.2435H99.6541V42.3256H96.0162V56.1049C96.0162 57.2458 96.0786 57.9777 96.209 58.3031C96.3327 58.6286 96.5393 58.8856 96.8293 59.0819C97.1191 59.2705 97.5325 59.3681 98.0696 59.3681C98.4691 59.3694 98.9992 59.3162 99.6541 59.2111ZM101.88 51.0058C101.88 46.6625 102.982 43.4437 105.194 41.3519C107.034 39.6146 109.287 38.746 111.94 38.746C114.881 38.746 117.293 39.8033 119.168 41.9192C121.036 44.0275 121.972 46.95 121.972 50.674C121.972 53.6965 121.559 56.0682 120.732 57.7979C119.905 59.5276 118.699 60.8724 117.115 61.8322C115.537 62.7908 113.807 63.2669 111.941 63.2669C108.937 63.2669 106.512 62.2171 104.658 60.1089C102.802 58.0018 101.88 54.9641 101.88 51.0058ZM105.601 51.0134C105.601 54.0208 106.2 56.2708 107.399 57.7599C108.604 59.2554 110.114 60.0037 111.94 60.0037C113.745 60.0037 115.247 59.2566 116.453 57.7523C117.651 56.2493 118.251 53.9599 118.251 50.8855C118.251 47.9845 117.645 45.7863 116.439 44.2985C115.234 42.803 113.731 42.0547 111.94 42.0547C110.114 42.0547 108.604 42.7954 107.399 44.2833C106.199 45.7711 105.601 48.0149 105.601 51.0134Z" fill="#231F20"/>
</svg>
