<svg width="44" height="64" viewBox="0 0 44 64" fill="none" xmlns="http://www.w3.org/2000/svg">
<path fill-rule="evenodd" clip-rule="evenodd" d="M0.438356 48.4384C0.767123 49.4247 1.53425 50.3014 2.73973 51.1781C4.38356 52.4932 17.0959 60.9315 21.0411 63.4521L21.9178 64L22.5753 63.5616C23.2329 63.1233 38.6849 52.6027 40.5479 51.1781C41.7534 50.3014 42.411 49.4247 42.8493 48.4384C43.3973 46.9041 43.1781 45.6986 43.0685 44.8219C42.9589 44.3836 40.4384 29.1507 39.1233 21.9178C33.4247 21.0411 27.726 20.6027 21.9178 20.6027C21.8082 20.6027 21.6986 20.6027 21.589 20.6027V60.0548C13.8082 55.0137 6.35616 50.0822 5.0411 49.0959C4.27397 48.5479 3.83562 48 3.61644 47.4521C3.28767 46.6849 3.39726 46.0274 3.50685 45.2603C3.61644 44.8219 6.35616 28.4931 7.67123 21.589C6.46575 21.6986 5.58904 21.9178 4.38356 22.137C3.06849 29.3699 0.328767 44.3836 0.219178 44.8219C0 45.6986 -0.219178 46.9041 0.438356 48.4384ZM10.5205 27.726H11.9452V28.4932V28.9315H13.1507V27.726H14.5753V28.9315H15.6712V27.726H17.0959V30.7945H10.5205V27.726ZM11.5068 31.2329H15.8904L17.4247 43.3973H10.0822L11.5068 31.2329ZM9.20548 44.0548H18.3014V47.1233H15.8904V46.3562H11.726V47.1233H9.20548V44.0548ZM12.7123 37.9178H14.7945V37.1507H12.7123V37.9178ZM14.7945 34.7397H12.7123V35.5068H14.7945V34.7397ZM12.7123 40.3288H14.7945V39.5616H12.7123V40.3288ZM11.3973 15.6712C10.5205 15.7808 9.9726 15.8904 9.20548 16.1096C9.09589 16.7671 8.87671 18.0822 8.65753 19.1781C12.9315 18.5205 17.4247 18.1918 21.8082 18.1918C25.9726 18.1918 30.137 18.5205 34.1918 19.0685C33.9726 18.0822 33.7534 16.7671 33.6438 16.1096C33.0959 15.8904 32.4384 15.7808 31.4521 15.6712C34.3014 15.0137 36.0548 13.0411 36.0548 11.0685C36.0548 8.54795 34.0822 6.46575 29.0411 6.0274C27.2877 4.60274 24.8767 4.05479 22.6849 3.83562C23.2329 3.50685 23.5616 2.84931 23.5616 2.08219C23.5616 0.986301 22.4658 0 21.3699 0C20.274 0 19.1781 0.876712 19.1781 2.08219C19.1781 2.73973 19.5068 3.39726 20.0548 3.83562C17.9726 4.05479 15.4521 4.60274 13.6986 6.0274C8.76712 6.46575 6.79452 8.54795 6.79452 11.0685C6.79452 13.0411 8.54794 15.0137 11.3973 15.6712ZM30.137 7.56164C30.137 7.56164 33.863 7.89041 33.863 11.1781C33.863 13.8082 31.0137 15.2329 27.5068 14.6849C32.3288 12.8219 31.3425 8.9863 30.137 7.56164ZM22.5753 5.69863C25.7534 6.0274 28.1644 8 28.1644 10.411C28.1644 12.8219 25.6438 14.9041 22.4658 15.1233C23.1233 14.2466 23.5616 12.4932 23.5616 10.3014C23.4521 8.32877 23.1233 6.57534 22.5753 5.69863ZM20.274 5.69863C19.726 6.68493 19.2877 8.32877 19.2877 10.3014C19.2877 12.3836 19.726 14.2466 20.3836 15.1233C17.2055 14.9041 14.6849 12.9315 14.6849 10.411C14.6849 7.89041 17.0959 5.91781 20.274 5.69863ZM12.7123 7.56164C11.5068 8.9863 10.5205 12.7123 15.4521 14.6849C11.9452 15.1233 9.09589 13.6986 9.09589 11.1781C8.87671 8 12.7123 7.56164 12.7123 7.56164ZM31.3425 49.6438C31.3425 49.5342 31.4521 49.3151 31.4521 49.2055C31.6712 49.2055 31.8904 49.0959 32.2192 49.0959C32.6575 48.7671 32.6575 47.8904 33.0959 47.5616C33.3151 47.4521 33.4247 47.5616 33.5342 47.7808C33.6438 47.4521 33.6438 47.0137 33.7534 46.5753C34.0822 45.6986 34.9589 45.1507 34.6301 43.5068C34.6301 43.5068 34.6301 43.5068 34.5205 43.3973C34.411 43.6164 34.3014 43.726 34.1918 43.9452C32.9863 43.8356 33.4247 41.2055 34.3014 40.9863C34.8493 42.6301 37.3699 43.0685 37.589 40.8767C37.589 40.4384 37.2603 39.8904 36.8219 39.2329C37.0411 38.5753 37.2603 38.0274 37.4795 37.6986C37.589 37.4794 36.8219 37.8082 36.3836 38.5753C36.6027 37.9178 36.8219 37.2603 37.1507 36.9315C37.2603 36.7123 36.6027 37.0411 36.1644 37.6986C36.3836 37.0411 36.6027 36.3836 36.9315 36.0548C37.0411 35.8356 36.1644 36.274 35.8356 37.0411C35.726 36.6027 35.6164 36.1644 35.6164 35.8356C35.6164 34.8493 35.9452 32.8767 36.3836 31.2329C36.4932 30.7945 36.7123 29.9178 37.3699 29.589C36.8219 29.4795 35.9452 29.9178 35.9452 30.9041C35.8356 29.4795 34.7397 28.9315 34.1918 28.8219C35.9452 30.4658 34.5205 34.0822 34.5205 35.726C34.5205 37.9178 37.1507 40.1096 36.7123 40.8767C36.1644 41.9726 35.0685 39.8904 34.7397 39.1233C34.411 38.4658 33.2055 37.3699 32.3288 36.4931C32.8767 36.1644 33.4247 35.1781 33.4247 34.3014C33.5342 34.411 33.6438 34.5205 33.6438 34.6301H33.7534C33.6438 33.7534 33.9726 32.7671 33.6438 32C33.7534 32 33.9726 32 34.0822 32C33.9726 28.0548 31.1233 28.8219 29.6986 29.1507C29.6986 29.2603 29.589 29.2603 29.589 29.3699C29.8082 29.3699 29.9178 29.3699 30.137 29.3699C30.0274 29.3699 29.8082 29.4795 29.6986 29.4795C29.589 29.6986 29.6986 30.3562 30.0274 30.6849C30.137 30.3562 30.137 30.2466 30.4658 30.137C30.7945 30.3562 31.0137 30.9041 30.7945 31.4521C30.5753 31.5616 30.3562 31.4521 30.2466 31.2329C30.137 31.7808 30.137 32.4384 30.5753 32.7671C30.5753 32.2192 30.7945 32 31.2329 32.1096C31.1233 33.3151 30.2466 32.9863 29.4795 33.3151C27.9452 33.863 27.6164 36.1644 26.1918 36.4931C26.3014 37.0411 26.8493 37.4794 27.1781 37.6986C26.9589 38.0274 26.1918 39.2329 25.7534 39.2329C25.6438 39.0137 25.5342 38.7945 25.2055 38.7945C24.9863 38.9041 24.7671 38.9041 24.5479 39.0137C24.5479 39.1233 24.4384 39.2329 24.4384 39.2329C24.5479 39.2329 24.6575 39.2329 24.7671 39.3425C24.7671 39.4521 24.7671 39.6712 24.7671 39.7808C24.9863 39.7808 25.2055 39.7808 25.4247 39.8904V40C25.2055 40 24.9863 39.8904 24.7671 39.8904C24.6575 40 24.3288 40.5479 24.3288 40.8767V40.9863C24.4384 40.8767 24.4384 40.8767 24.5479 40.7671C24.6575 40.7671 24.6575 40.8767 24.7671 40.9863C24.7671 40.9863 24.8767 40.9863 24.8767 41.0959C25.0959 40.8767 25.2055 40.7671 25.4247 40.5479C25.4247 40.5479 25.4247 40.6575 25.5342 40.6575C25.4247 40.8767 25.2055 40.9863 25.0959 41.2055C25.0959 41.5342 24.9863 41.863 25.0959 42.1918C25.2055 42.0822 25.3151 41.9726 25.4247 41.863C25.863 42.3014 26.0822 41.7534 26.411 41.3151C26.5205 41.4247 26.7397 41.4247 26.9589 41.5342C26.9589 41.6438 26.9589 41.7534 26.9589 41.863C27.6164 41.2055 26.7397 40.5479 27.6164 39.7808C28.0548 40 28.274 40 28.7123 39.7808C28.8219 39.6712 28.8219 39.5616 28.9315 39.4521C28.7123 39.3425 28.6027 39.2329 28.4932 39.0137C28.4932 38.9041 28.4932 38.7945 28.6027 38.7945C28.8219 38.4658 29.3699 38.4658 29.6986 38.5753C30.5753 38.9041 31.1233 39.7808 31.7808 40.4384C31.6712 41.3151 31.6712 42.3014 31.7808 43.0685C32 43.8356 32.5479 44.1644 32.3288 45.1507C32.6575 45.1507 32.8767 44.9315 32.9863 44.7123C33.0959 44.7123 33.2055 44.7123 33.4247 44.7123C33.0959 45.3699 32.4384 46.5753 31.7808 46.7945C31.1233 47.0137 30.9041 46.2466 30.3562 46.3562C30.2466 46.4658 30.137 46.5753 30.137 46.5753C29.9178 46.6849 29.8082 46.5753 29.589 46.9041V47.0137C29.6986 47.0137 29.8082 47.0137 29.9178 47.0137C29.9178 47.1233 30.0274 47.2329 30.0274 47.4521C30.137 47.2329 30.3562 47.1233 30.4658 46.9041C30.4658 46.9041 30.4658 46.9041 30.4658 47.0137C30.2466 47.2329 30.0274 47.5616 29.9178 47.8904C29.9178 48.1096 29.9178 48.3288 29.9178 48.5479C29.9178 48.5479 29.9178 48.5479 30.0274 48.5479L30.2466 48.2192H30.3562C30.3562 48.3288 30.4658 48.3288 30.4658 48.4384H30.5753C30.6849 48.1096 30.6849 47.8904 30.7945 47.5616C30.7945 47.5616 30.9041 47.5616 30.9041 47.4521C30.7945 47.8904 30.6849 48.4384 30.7945 48.9863L30.9041 49.0959C30.9041 48.9863 31.0137 48.8767 31.0137 48.8767C30.6849 49.0959 30.6849 48.9863 30.9041 49.0959C30.9041 48.6575 30.7945 48.3288 31.1233 48.1096C30.9041 48.4384 31.0137 49.0959 31.1233 49.5342C31.1233 49.5342 31.2329 49.6438 31.3425 49.6438ZM30.7945 30.0274V29.589C31.1233 29.589 31.5616 29.589 31.7808 29.6986C31.4521 29.6986 31.1233 29.8082 30.7945 30.0274ZM31.4521 44.7123C31.1233 44.3836 29.9178 42.9589 30.2466 42.0822C30.3562 41.6438 30.7945 41.7534 31.1233 41.9726C31.1233 41.7534 31.1233 41.4247 31.2329 41.2055C31.0137 40.8767 30.4658 40.6575 30.6849 40.1096C29.1507 38.9041 29.2603 40.9863 28.0548 40.8767C28.0548 41.3151 28.3836 41.6438 28.7123 41.7534C28.7123 42.7397 29.0411 43.3973 29.4795 43.726V43.8356C28.9315 43.9452 28.1644 43.9452 27.8356 43.6164C27.2877 43.1781 27.1781 42.6301 26.411 42.6301C26.411 42.7397 26.5205 42.7397 26.5205 42.8493C26.5205 42.9589 26.5205 43.0685 26.411 43.1781C26.5205 43.1781 26.7397 43.2877 26.8493 43.2877C26.8493 43.2877 26.8493 43.2877 26.9589 43.2877V43.6164C26.5205 43.5068 25.9726 43.5068 25.863 44.0548C25.9726 44.0548 26.0822 44.0548 26.1918 44.0548C26.3014 44.1644 26.3014 44.274 26.411 44.6027C26.6301 44.3836 26.7397 44.1644 26.9589 44.0548C26.8493 44.6027 26.411 44.7123 26.411 45.3699C26.5205 45.3699 26.6301 45.2603 26.7397 45.1507C26.8493 45.2603 26.9589 45.3699 27.0685 45.4795C27.1781 45.3699 27.2877 45.0411 27.2877 44.8219H27.3973C27.2877 45.2603 27.0685 45.6986 27.2877 46.137C27.2877 46.2466 27.3973 46.2466 27.3973 46.3562C27.3973 46.2466 27.5068 46.137 27.5068 46.0274C27.726 45.9178 27.8356 46.137 28.0548 46.0274C28.3836 45.9178 28.3836 45.3699 28.9315 45.3699C29.0411 45.4794 29.1507 45.589 29.1507 45.9178C29.4795 45.8082 29.589 45.4794 29.8082 45.3699C30.5753 45.0411 30.7945 45.4795 31.4521 44.7123ZM29.0411 32C29.6986 31.8904 29.9178 31.2329 30.5753 31.2329C30.4658 31.2329 30.2466 31.1233 30.137 31.2329C29.8082 31.3425 28.3836 32.1096 28.9315 30.9041C28.3836 30.9041 28.1644 32.1096 29.0411 32ZM24.5479 35.1781C24.6575 35.3973 25.0959 35.3973 25.3151 35.3973C25.4247 35.2877 25.5342 35.0685 25.6438 34.9589C25.6438 34.9589 25.6438 34.9589 25.7534 34.9589C26.0822 35.3973 26.411 35.8356 26.7397 36.1644C26.7397 36.1644 26.7397 36.1644 26.8493 36.1644C27.1781 35.8356 27.3973 35.3973 27.6164 35.0685C27.5068 34.411 26.8493 34.1918 26.6301 33.6438C26.411 32.9863 27.0685 32.1096 26.1918 31.5616C26.1918 31.8904 26.0822 32 25.9726 32.2192C25.9726 32.4384 25.9726 32.6575 26.0822 32.7671V32.8767C25.9726 32.7671 25.9726 32.5479 25.863 32.3288C25.7534 32.1096 25.3151 31.7808 24.9863 31.7808C25.0959 32 24.9863 32.2192 25.0959 32.4384C25.2055 32.6575 25.3151 32.8767 25.4247 33.0959V33.2055H25.3151C25.2055 33.0959 25.0959 32.8767 24.8767 32.7671C24.6575 32.6575 24.3288 32.7671 24.1096 32.8767C24.2192 32.9863 24.3288 33.0959 24.3288 33.2055C24.5479 33.3151 25.4247 34.411 24.5479 35.1781ZM30.2466 26.9589C30.5753 26.7397 30.9041 26.6301 31.2329 26.6301C31.1233 26.5205 31.1233 26.5205 31.1233 26.411C31.1233 26.1918 31.3425 26.0822 31.4521 26.0822C31.6712 26.0822 31.7808 26.1918 31.7808 26.411C31.7808 26.5205 31.7808 26.6301 31.6712 26.6301C32 26.6301 32.3288 26.7397 32.6575 26.9589C33.4247 27.0685 33.7534 27.3973 33.7534 27.726C33.7534 28.0548 33.4247 28.3836 32.8767 28.4932C32.8767 28.6027 32.8767 28.7123 32.8767 28.8219C32.5479 28.7123 32 28.7123 31.4521 28.7123C31.0137 28.7123 30.3562 28.8219 30.0274 28.8219C30.0274 28.7123 30.0274 28.6027 30.0274 28.4932C29.4795 28.3836 29.1507 28.0548 29.1507 27.726C29.1507 27.3973 29.4795 27.0685 30.2466 26.9589ZM33.3151 27.8356C33.3151 27.3973 32.7671 27.2877 32.7671 27.2877C32.9863 27.5068 33.0959 27.9452 32.3288 28.274C32.9863 28.3836 33.3151 28.1644 33.3151 27.8356ZM32.4384 27.726C32.4384 27.3973 32 27.0685 31.5616 27.0685C31.6712 27.1781 31.6712 27.3973 31.6712 27.726C31.6712 28.0548 31.5616 28.274 31.4521 28.3836C32.1096 28.274 32.4384 28.0548 32.4384 27.726ZM31.2329 28.3836C31.1233 28.274 31.0137 28.0548 31.0137 27.726C31.0137 27.5068 31.1233 27.1781 31.1233 27.0685C30.5753 27.0685 30.2466 27.3973 30.2466 27.726C30.3562 28.0548 30.7945 28.274 31.2329 28.3836ZM30.4658 28.274C29.6986 27.9452 29.9178 27.5068 30.0274 27.2877C30.0274 27.2877 29.4795 27.2877 29.4795 27.8356C29.4795 28.1644 29.9178 28.3836 30.4658 28.274Z" fill="#DCB91C"/>
</svg>
