<svg width="76" height="64" viewBox="0 0 76 64" fill="none" xmlns="http://www.w3.org/2000/svg">
<path d="M32.7378 63.9989C26.526 63.9958 21.4311 62.6917 16.6664 60.1098C14.4635 58.916 12.447 57.4528 10.584 55.7747C7.69271 53.1702 5.35727 50.1389 3.57089 46.685C2.20158 44.0374 1.23478 41.25 0.641905 38.3259C0.110738 35.7063 -0.095679 33.0623 0.0409662 30.4012C0.252892 26.2747 1.20699 22.321 2.95028 18.562C4.24706 15.7658 5.90922 13.2101 7.94372 10.9015C10.2167 8.32248 12.8262 6.13954 15.7958 4.39717C18.3388 2.90509 21.0335 1.76984 23.8883 1.0338C25.4786 0.62382 27.0929 0.335067 28.7323 0.173925C30.2101 0.0286788 31.6879 -0.0342321 33.1689 0.018387C35.2324 0.0917347 37.2727 0.360725 39.2847 0.833619C43.7892 1.89243 47.8679 3.84774 51.5268 6.6738C52.7691 7.63341 53.2319 8.92898 52.8704 10.4465C52.5078 11.9683 51.4962 12.8974 49.9568 13.1907C48.8907 13.3939 47.9101 13.1351 47.0463 12.4691C45.1589 11.0138 43.106 9.85085 40.8838 8.99107C38.9829 8.25561 37.0188 7.7731 34.993 7.53281C33.7753 7.38838 32.5554 7.32311 31.331 7.35954C28.2239 7.45192 25.236 8.0963 22.3708 9.3077C20.3405 10.1661 18.4601 11.2826 16.7368 12.6496C14.2895 14.5908 12.2692 16.9142 10.6938 19.6152C9.09279 22.3601 8.07114 25.3065 7.62013 28.455C7.40251 29.9744 7.30408 31.498 7.3741 33.0288C7.52673 36.3657 8.30065 39.5505 9.73654 42.5739C11.1228 45.4927 13.0164 48.0354 15.3967 50.2094C18.949 53.4539 23.1121 55.4727 27.8476 56.3116C29.76 56.6503 31.6929 56.7347 33.6232 56.6065C36.6203 56.4074 39.4985 55.6962 42.236 54.4301C43.9254 53.6488 45.5015 52.6914 46.9879 51.5763C48.2857 50.6027 49.688 50.4311 51.1037 51.2427C53.5354 52.6366 53.551 55.8317 51.5735 57.3448C47.5524 60.4215 43.0724 62.4724 38.0934 63.4259C36.0631 63.8148 34.0179 64.0171 32.7378 63.9989Z" fill="#056FB6"/>
<path d="M41.4578 14.0951C41.9277 14.3414 42.3902 14.6061 42.8351 14.8948C44.1476 15.7466 44.7821 17.2041 44.4515 18.7402C44.1178 20.2913 43.1144 21.253 41.5873 21.6116C40.6127 21.8403 39.6691 21.6569 38.809 21.111C37.8936 20.5299 36.9149 20.0824 35.8789 19.7622C28.8196 17.5804 21.5346 21.6642 19.6369 28.6344C17.7268 35.6501 21.9796 42.8989 29.0744 44.5042C34.2231 45.6691 38.5748 44.099 42.0107 40.0782C42.9715 38.9539 43.6596 37.6621 44.1486 36.2661C44.1911 36.1449 44.2273 36.0214 44.2612 35.8976C44.2689 35.8693 44.2548 35.8352 44.2473 35.7767C44.0304 35.7133 43.8361 35.7386 43.6447 35.7387C41.0358 35.7399 38.4268 35.7549 35.818 35.7432C34.3057 35.7364 33.1393 35.0786 32.4393 33.7247C31.1728 31.2748 32.9267 28.3746 35.6879 28.3345C37.0727 28.3144 38.4579 28.3281 39.843 28.3276C42.7579 28.3263 45.6729 28.319 48.5879 28.3275C50.2659 28.3323 51.6785 29.4148 52.1326 31.016C52.234 31.3736 52.2833 31.7391 52.2797 32.1124C52.2416 35.7305 51.3612 39.1274 49.4981 42.2329C46.4211 47.3618 41.9591 50.6723 36.0901 51.8372C29.2088 53.2031 23.1235 51.4083 18.0037 46.602C14.7162 43.5158 12.7194 39.6777 12.0317 35.221C10.6477 26.2516 15.0246 17.7747 22.9832 13.8279C25.1973 12.7299 27.5495 12.1025 30.0116 11.8739C34.0451 11.4994 37.8651 12.2123 41.4578 14.0951Z" fill="#243992"/>
<path d="M71.0572 12.0429C72.2277 14.2171 73.1263 16.5104 73.8662 18.8647C74.713 21.559 75.2897 24.3106 75.5992 27.1189C75.781 28.7682 75.884 30.4209 75.8766 32.0811C75.8562 37.7969 74.7856 43.3073 72.6321 48.6044C72.1834 49.7081 71.6957 50.7952 71.1475 51.8534C70.5685 52.9712 69.6586 53.6469 68.4104 53.8514C66.2772 54.201 64.2928 52.5897 64.1861 50.4306C64.1518 49.7361 64.3145 49.0929 64.624 48.476C65.9439 45.8456 66.9444 43.099 67.5975 40.2286C68.0446 38.2638 68.3189 36.2752 68.4491 34.2625C68.7167 30.1249 68.2596 26.0666 67.1567 22.0788C66.5417 19.8549 65.7056 17.712 64.6604 15.6526C63.9746 14.3014 64.0155 12.9735 64.876 11.7206C66.388 9.51947 69.791 9.69105 71.0572 12.0429ZM60.9829 18.4385C61.5304 19.4798 61.9365 20.5847 62.3176 21.6968C63.1245 24.0519 63.6316 26.4733 63.8685 28.9487C63.9681 29.9892 64.0351 31.0347 64.0065 31.6665C63.995 36.7042 63.0459 41.1203 61.1314 45.3292C60.4515 46.8238 58.8815 47.7331 57.2979 47.5262C55.6249 47.3077 54.3686 46.0492 54.1116 44.3639C54.0058 43.6702 54.1094 43.0134 54.3922 42.3867C55.3715 40.2168 56.0558 37.9619 56.3952 35.6035C56.6574 33.7809 56.7106 31.9547 56.5768 30.1166C56.3976 27.6554 55.8426 25.2858 54.9512 22.9907C54.7823 22.556 54.5879 22.1312 54.4048 21.702C53.6793 20.001 54.2411 18.1185 55.7749 17.1115C57.5372 15.9545 60.001 16.5709 60.9829 18.4385Z" fill="#6FBAF7"/>
</svg>
