<svg width="64" height="64" viewBox="0 0 64 64" fill="none" xmlns="http://www.w3.org/2000/svg">
<rect width="64" height="64" rx="11" fill="#4BA658"/>
<path d="M19.0142 39.4054C19.0079 38.2884 19.9115 37.3936 21.0269 37.3325V37.3325C22.9292 37.2872 23.0538 37.2872 23.2576 37.3325C24.3786 37.4571 25.5336 37.5363 26.3942 38.4082C27.3001 39.3141 27.3907 40.5144 27.3907 40.8428C27.3907 41.1372 27.436 42.5413 26.3942 43.651C25.7714 44.3077 25.0694 44.5568 24.741 44.6474C24.1635 44.8512 23.6653 44.8512 22.6348 44.8965V44.8965C21.8156 44.8965 21.1515 45.5607 21.1515 46.3799C21.1515 47.057 21.1515 47.7342 21.1515 48.4113C21.1515 49.0029 20.6719 49.4825 20.0803 49.4825V49.4825C19.4852 49.4825 19.0042 48.9974 19.0083 48.4023C19.029 45.3993 19.031 42.4113 19.0142 39.4054ZM21.2318 42.1212C21.23 42.7409 21.732 43.2886 22.3517 43.2886V43.2886C23.3482 43.2433 23.8804 43.2433 24.3333 42.9149C24.4363 42.848 24.5265 42.7752 24.6053 42.7012C24.9819 42.3477 25.247 41.8613 25.3155 41.3493C25.3246 41.2815 25.3298 41.2107 25.3298 41.1372C25.3298 41.0579 25.3298 40.1067 24.6277 39.5292C24.1295 39.1216 23.5973 39.0763 22.6914 39.031V39.031C21.8582 38.9657 21.261 39.6856 21.2464 40.5212C21.2371 41.0484 21.2333 41.5832 21.2318 42.1212Z" fill="white"/>
<path d="M34.2268 49.4823C34.0664 49.4825 33.9309 49.3668 33.9112 49.2076V49.2076C33.877 48.9311 33.5114 48.8063 33.286 48.97C32.9508 49.2135 32.4912 49.4642 31.92 49.607C31.6709 49.6523 30.0177 50.0599 28.908 48.9502C28.1266 48.1689 28.1266 47.1272 28.1266 47.0139C28.1266 46.8101 28.1266 46.2326 28.5003 45.6551C28.874 45.1229 29.3722 44.8738 29.7799 44.6587C30.4366 44.3642 30.7763 44.3642 32.7579 44.0359C32.906 44.0045 33.0398 43.9784 33.158 43.9555C33.4104 43.9067 33.5845 43.6881 33.5845 43.431V43.431C33.5845 43.3896 33.5801 43.3475 33.5713 43.307C33.523 43.0834 33.4304 42.6805 33.1316 42.3713C32.724 41.9184 32.1351 41.8731 31.6482 41.8391C30.9881 41.7967 30.3829 41.9066 29.8693 42.0682C29.3486 42.2321 28.7608 41.8748 28.7608 41.329V41.329C28.7608 41.0555 28.9138 40.8078 29.1657 40.7014C29.8483 40.4131 30.8439 40.121 32.0219 40.1859C32.8032 40.2312 33.8789 40.3105 34.7056 41.0918C35.8266 42.1675 35.736 43.6962 35.702 43.9793V47.2064C35.702 47.6526 35.702 48.0947 35.702 48.5376C35.702 49.0468 35.3127 49.4696 34.8036 49.4779C34.6154 49.481 34.422 49.482 34.2268 49.4823ZM33.6603 46.5758C33.666 45.895 33.0834 45.3481 32.4129 45.4657C32.3127 45.4833 32.2198 45.5013 32.1351 45.5192C31.1047 45.6891 30.8103 45.8476 30.5612 46.0514C30.4819 46.1307 30.2328 46.3798 30.1875 46.7535C30.1082 47.1611 30.2668 47.5801 30.5612 47.8745C30.8556 48.1236 31.2179 48.1689 31.5576 48.1689C31.6822 48.1689 32.0559 48.1689 32.4635 48.0444C32.7929 47.9346 33.0256 47.7631 33.1846 47.6077C33.2256 47.5677 33.2776 47.5227 33.321 47.4852V47.4852C33.5432 47.2931 33.656 46.9987 33.659 46.705C33.6595 46.6619 33.6599 46.6188 33.6603 46.5758Z" fill="white"/>
<path d="M38.2608 40.4372C38.7165 40.4334 39.1425 40.7126 39.3074 41.1375C39.792 42.3865 40.2728 43.7181 40.7296 45.1456V45.1456C40.8971 45.7226 41.767 45.7375 41.9594 45.1683C42.1385 44.6383 42.3218 44.1095 42.5074 43.583C42.8022 42.7344 43.0969 41.914 43.3917 41.1163C43.5332 40.7334 43.8988 40.4804 44.307 40.4804V40.4804C44.9947 40.4804 45.4677 41.1704 45.2173 41.8109C44.6316 43.3093 44.035 44.8175 43.4586 46.3459C42.9603 47.4669 42.632 48.3728 42.3828 49.0295C42.1337 49.7769 41.9752 50.3091 41.5562 51.0564C41.024 52.0076 40.5258 52.3813 40.322 52.5058C39.9143 52.8002 39.5407 52.9135 39.201 53.0041C39.0267 53.0656 38.8556 53.1126 38.6915 53.1496C38.1809 53.2648 37.7176 52.8361 37.7176 52.3126V52.3126C37.7176 51.8831 38.0408 51.5427 38.4393 51.3824C38.6168 51.311 38.8061 51.211 38.9971 51.0678C39.0764 51.0225 39.3255 50.8186 39.5746 50.4903C39.6539 50.411 39.7445 50.1959 39.9483 49.7429C40.1182 49.4145 40.1521 49.3353 40.1521 49.1654C40.1521 48.9616 40.0729 48.837 40.0276 48.7125L37.3236 41.8963C37.047 41.199 37.5106 40.4433 38.2608 40.4372V40.4372Z" fill="white"/>
<path d="M54.3287 17.8236C53.2285 16.7235 51.8081 16.1247 50.2902 16.1247C49.19 16.1247 48.0899 16.5424 47.4771 16.9463C46.2488 17.7652 45.2211 18.6644 43.4239 20.9941C43.3524 21.0867 43.3133 21.2014 43.3133 21.3183V21.3183C43.3133 21.826 43.9624 22.0494 44.2842 21.6567C45.5076 20.1638 46.6231 18.9881 47.5189 18.2692C48.2709 17.6565 49.3293 17.2805 50.2762 17.2805C52.755 17.2805 54.83 19.3833 54.83 21.8621V22.9205C54.83 24.1599 54.3426 25.3018 53.4792 26.1791C52.6158 27.0425 51.4739 27.5299 50.2762 27.5299C48.6083 27.5299 47.0923 26.5797 46.3407 25.166C46.1432 24.7946 45.5963 24.6834 45.3324 25.0109V25.0109C45.2278 25.1408 45.1912 25.3145 45.2485 25.4712C45.9342 27.3476 48.0095 28.7136 50.2762 28.7136C51.7802 28.7136 53.2146 28.1009 54.3147 27.0147C55.4149 25.9145 55.9998 24.4663 55.9998 22.9623V21.9039C56.0137 20.3442 55.4149 18.9098 54.3287 17.8236ZM29.29 17.2805C29.875 17.2805 30.4112 17.3861 30.9049 17.5849C31.1701 17.6917 31.5168 17.5888 31.7065 17.3749V17.3749C31.9473 17.1035 31.8829 16.7174 31.5532 16.5659C30.9255 16.2774 30.1115 16.1107 29.29 16.1107C27.6885 16.1107 26.2541 16.6956 25.2236 17.754C24.207 18.8124 23.6221 20.2746 23.6221 21.876V28.1288C23.6221 28.4441 23.8778 28.6997 24.1931 28.6997V28.6997C24.5084 28.6997 24.7641 28.4441 24.7641 28.1288V21.876C24.7641 19.1884 26.6162 17.2805 29.29 17.2805ZM40.3541 28.7136C40.3579 28.7136 40.361 28.7105 40.361 28.7067V21.9178C40.361 19.815 38.7317 18.1857 36.6707 18.1857C35.6959 18.1857 34.7907 18.5756 34.0665 19.2998C33.3563 20.01 32.9664 20.943 32.9664 21.9178V22.9762C32.9664 24.9954 34.6514 26.7083 36.6567 26.7083C37.1435 26.7083 37.7685 26.602 38.2251 26.3243C38.3484 26.2493 38.4114 26.1093 38.4114 25.965V25.965C38.4114 25.5596 37.9036 25.2935 37.5139 25.4049C37.2405 25.4831 36.9486 25.5246 36.6567 25.5246C35.2363 25.5246 34.1083 24.3966 34.1083 22.9623V21.9039C34.1083 20.4695 35.2224 19.3415 36.6567 19.3415C38.0911 19.3415 39.2052 20.4695 39.2052 21.9039V28.1288C39.2052 28.4441 39.4608 28.6997 39.7761 28.6997H40.3401C40.344 28.6997 40.3471 28.7028 40.3471 28.7067V28.7067C40.3471 28.7105 40.3502 28.7136 40.3541 28.7136V28.7136ZM9 21.2494V21.6393C9 23.7143 9.76592 25.636 11.1446 27.0704C12.5372 28.5047 14.3893 29.2985 16.3946 29.2985C17.9961 29.2985 19.4026 28.9225 20.6002 28.1984V28.1984C21.6457 27.5505 22.0764 26.2072 22.0764 24.9773V23.4775C22.0764 21.8316 20.7421 20.4974 19.0962 20.4974H16.7149C16.3842 20.4974 16.1161 20.7655 16.1161 21.0962V21.0962C16.1161 21.4269 16.3842 21.695 16.7149 21.695H18.5183C19.845 21.695 20.9205 22.7705 20.9205 24.0972V25.1493C20.9205 26.0506 20.5878 26.962 19.7874 27.3765C19.0324 27.7676 17.9395 28.1009 16.4086 28.1009C14.7096 28.1009 13.1221 27.4325 11.9662 26.2209C10.7825 25.0094 10.1558 23.38 10.1558 21.6254V21.2355C10.1558 19.5922 10.8939 17.9211 12.1612 16.6956C13.4563 15.4423 15.1552 14.7599 16.9238 14.7599C18.0796 14.7599 19.0011 14.8839 19.766 15.1562C20.172 15.3007 20.6559 15.0241 20.6559 14.5931V14.5931C20.6559 14.3733 20.5257 14.1725 20.319 14.0977C19.4173 13.7714 18.3568 13.618 16.9238 13.618C12.6346 13.6598 9 17.1413 9 21.2494ZM29.29 19.3276C29.4683 19.3276 29.637 19.3395 29.7944 19.3632C30.1264 19.4134 30.4872 19.2745 30.6388 18.9748V18.9748C30.7707 18.7141 30.7076 18.3919 30.4269 18.3108C30.0782 18.2101 29.6406 18.1578 29.29 18.1578C27.1872 18.1439 25.6135 19.7593 25.6135 21.89V28.1427C25.6135 28.458 25.8692 28.7136 26.1845 28.7136V28.7136C26.4998 28.7136 26.7555 28.458 26.7555 28.1427V21.89C26.7555 20.386 27.7999 19.3276 29.29 19.3276ZM19.7349 17.315C20.1365 17.4968 20.6699 17.2379 20.6699 16.797V16.797C20.6699 16.6059 20.5657 16.4286 20.3935 16.3456C19.4113 15.872 18.3373 15.6512 16.9377 15.6512C15.378 15.6512 13.9019 16.2361 12.7739 17.2944C11.6459 18.3528 11.0332 19.7593 11.0332 21.2494V21.6393C11.0332 24.7169 13.4563 27.2375 16.4086 27.2375C17.7186 27.2375 18.6094 27.0014 19.191 26.7449C19.8075 26.4729 20.0711 25.8006 20.0711 25.1268V24.5568C20.0711 23.4685 19.1888 22.5863 18.1005 22.5863H16.7288C16.3981 22.5863 16.13 22.8544 16.13 23.1851V23.1851C16.13 23.5158 16.3981 23.7839 16.7288 23.7839H18.0866C18.5827 23.7839 18.9848 24.186 18.9848 24.6821V25.5686C18.9848 25.5751 18.9796 25.5803 18.9731 25.5803V25.5803C18.9717 25.5803 18.9703 25.5806 18.9689 25.5811C18.6061 25.7207 17.8403 26.0399 16.4086 26.0399C15.2806 26.0399 14.2222 25.5942 13.4284 24.7726C12.6346 23.951 12.189 22.8369 12.189 21.6532V21.2633C12.189 18.882 14.3615 16.8767 16.9238 16.8767C18.1393 16.8577 19.0115 16.9876 19.7349 17.315ZM48.4241 20.1353C48.9394 19.6201 49.6217 19.3137 50.2902 19.3137C51.7245 19.3137 52.8386 20.4417 52.8386 21.876V22.9344C52.8386 24.3688 51.7245 25.4968 50.2902 25.4968C49.5939 25.4968 48.9254 25.1208 48.4102 24.4245C48.1935 24.1356 48.0109 23.8002 47.874 23.4476C47.7144 23.0366 47.094 22.8605 46.815 23.2019V23.2019C46.7229 23.3146 46.685 23.4632 46.7218 23.6039C46.9303 24.4006 47.3659 25.158 47.9645 25.7057C48.633 26.3184 49.4685 26.6526 50.318 26.6526C52.3651 26.6526 54.0223 24.9815 54.0223 22.9205V21.8621C54.0223 20.8873 53.6324 19.9682 52.9221 19.2441C52.2119 18.5338 51.2928 18.13 50.318 18.13C49.7053 18.13 48.7444 18.3389 47.5746 19.3972C47.2682 19.7036 46.5302 20.4417 46.0845 20.9709C45.3624 21.7599 44.3449 22.9342 43.4513 24.1238C43.3795 24.2194 43.3412 24.3358 43.3412 24.4554V24.4554C43.3412 24.9878 44.0184 25.2189 44.3499 24.8023C44.8579 24.1641 45.317 23.6115 45.9174 22.9066C46.753 21.89 47.8114 20.6645 48.4241 20.1353ZM30.975 22.9762C30.975 24.4941 31.5599 25.9285 32.66 27.0286C33.7602 28.1288 35.1667 28.7276 36.6707 28.7276C37.1763 28.7276 37.6905 28.6408 38.1107 28.4947C38.3074 28.4264 38.4253 28.2333 38.4253 28.0251V28.0251C38.4253 27.6337 38.0188 27.3635 37.6365 27.4479C37.3082 27.5204 36.9749 27.5578 36.6707 27.5578C34.2197 27.5578 32.1169 25.455 32.1169 22.9762V21.9178C32.1169 19.4251 34.1919 17.3362 36.6707 17.3362C37.8961 17.3362 39.0381 17.7958 39.9015 18.6592C40.7649 19.5226 41.2244 20.6645 41.2244 21.9039V28.1288C41.2244 28.4441 41.4801 28.6997 41.7954 28.6997V28.6997C42.1107 28.6997 42.3663 28.4441 42.3663 28.1288V21.6672C42.2967 20.1771 41.6701 18.7984 40.5978 17.754C39.5255 16.7096 38.119 16.1386 36.6707 16.1386C35.1667 16.1386 33.7462 16.7513 32.66 17.8375C31.5599 18.9377 30.975 20.3581 30.975 21.89V22.9762ZM44.5249 16.961C44.5249 17.4528 45.1316 17.6718 45.4876 17.3326V17.3326C45.5978 17.2275 45.6668 17.0817 45.6668 16.9294V11.5709C45.6668 11.2556 45.4111 11 45.0958 11V11C44.7805 11 44.5249 11.2556 44.5249 11.5709V16.961ZM47.4705 16.0195C47.0944 16.2463 46.5302 16.0171 46.5302 15.5779V11.5988C46.5302 11.2757 46.792 11.0139 47.1151 11.0139V11.0139C47.4381 11.0139 47.6999 11.2757 47.6999 11.5988V15.5817C47.6999 15.7704 47.6321 15.9221 47.4705 16.0195V16.0195Z" fill="white"/>
</svg>
