<svg width="255" height="64" viewBox="0 0 255 64" fill="none" xmlns="http://www.w3.org/2000/svg">
<g clip-path="url(#clip0_309_359)">
<path d="M224.722 0.00890421C224.283 1.61708 223.875 3.12954 223.459 4.63901C223.084 5.99295 222.689 7.34192 222.325 8.69885C222.246 8.99297 222.127 9.13355 221.819 9.09965C221.687 9.0847 221.553 9.09766 221.42 9.09766C206.199 9.09766 190.98 9.10063 175.76 9.08568C175.224 9.08568 174.989 9.21729 174.845 9.76265C174.066 12.7018 173.237 15.629 172.429 18.5602C172.386 18.7148 172.37 18.8773 172.325 19.1266C172.625 19.1266 172.867 19.1266 173.109 19.1266C186.999 19.1266 200.89 19.1256 214.781 19.1285C215.588 19.1285 216.375 19.2602 217.044 19.7487C218.162 20.5663 218.618 21.955 218.233 23.3668C217.394 26.4446 216.539 29.5184 215.691 32.5931C214.795 35.8434 213.903 39.0957 212.999 42.3439C212.288 44.8963 210.115 46.7487 207.498 47.0468C207.104 47.0917 206.706 47.1206 206.309 47.1206C189.71 47.1245 173.111 47.1236 156.512 47.1236C156.135 47.1236 155.758 47.1236 155.294 47.1236C155.507 46.3439 155.705 45.6021 155.909 44.8614C156.494 42.7427 157.092 40.6281 157.654 38.5034C157.776 38.0428 158.051 38.0299 158.426 38.0299C170.987 38.0358 183.548 38.0348 196.111 38.0348C198.885 38.0348 201.66 38.0269 204.435 38.0438C204.864 38.0468 205.026 37.9092 205.139 37.4895C205.917 34.5842 206.732 31.6879 207.531 28.7876C207.574 28.633 207.59 28.4725 207.637 28.2153C207.315 28.2153 207.058 28.2153 206.8 28.2153C192.942 28.2143 179.085 28.2133 165.227 28.2093C164.491 28.2093 163.793 28.0747 163.13 27.7078C161.763 26.9511 161.353 25.3489 161.721 24.0039C163.477 17.5792 165.222 11.1505 167.059 4.74767C167.81 2.12852 169.645 0.543324 172.356 0.0328558C172.565 -0.00702457 172.787 0.00992653 173.002 0.00992653C190.033 0.00892952 207.064 0.00890421 224.096 0.00890421C224.274 0.00890421 224.455 0.00890421 224.722 0.00890421Z" fill="#6D6E72"/>
<path d="M54.3699 47.0628C49.35 38.5264 44.4058 30.0479 39.4218 21.5933C39.3589 21.6152 39.2971 21.6361 39.2343 21.658C38.9841 22.5244 38.7259 23.3889 38.4846 24.2583C37.3948 28.1755 36.3081 32.0927 35.2234 36.012C34.2443 39.5484 33.2642 43.0848 32.2981 46.6251C32.1994 46.9881 32.0479 47.1346 31.6511 47.1316C28.9761 47.1147 26.3011 47.1246 23.6261 47.1197C23.4357 47.1197 23.2463 47.0748 22.9751 47.0399C27.3201 31.3739 31.6471 15.7747 36.009 0.0508423C36.4008 0.686934 36.7418 1.23331 37.0758 1.78465C39.2852 5.43271 41.4965 9.08077 43.7019 12.7308C46.346 17.1057 48.9861 21.4836 51.6272 25.8604C53.003 28.1406 54.3779 30.4217 55.7568 32.7009C56.1047 33.2752 56.1845 33.2632 56.7209 32.8056C58.3699 31.4008 60.0339 30.013 61.689 28.6152C63.0908 27.4307 64.4846 26.2363 65.8884 25.0548C67.671 23.5533 69.4647 22.0648 71.2473 20.5633C72.6521 19.3799 74.0439 18.1815 75.4477 16.997C77.028 15.664 78.6192 14.345 80.1974 13.01C81.662 11.7717 83.1107 10.5155 84.5733 9.27517C85.9233 8.13061 87.2822 6.998 88.6361 5.85842C90.014 4.6989 91.3929 3.53841 92.7677 2.3759C93.5135 1.74579 94.2523 1.1077 94.9971 0.477589C95.0539 0.428736 95.1356 0.408767 95.2603 0.347949C94.8196 1.96111 94.3998 3.51845 93.9681 5.07279C92.9083 8.89532 91.8425 12.7169 90.7797 16.5384C89.6371 20.6471 88.4945 24.7548 87.353 28.8634C86.1934 33.0349 85.0339 37.2064 83.8764 41.3789C83.3949 43.1147 82.9073 44.8485 82.4507 46.5902C82.349 46.9771 82.1974 47.1326 81.7797 47.1306C79.1217 47.1137 76.4627 47.1237 73.8046 47.1187C73.5962 47.1187 73.3879 47.0688 73.1167 47.0349C75.1735 39.5693 77.2144 32.1595 79.2563 24.7488C79.2114 24.7169 79.1656 24.6859 79.1207 24.654C78.9701 24.7298 78.7947 24.7777 78.675 24.8863C77.8395 25.6391 77.018 26.4088 76.1865 27.1665C74.3639 28.8255 72.5344 30.4786 70.7129 32.1396C69.4646 33.2772 68.2264 34.4277 66.9781 35.5663C65.5484 36.8694 64.1097 38.1625 62.681 39.4666C61.7259 40.338 60.7857 41.2243 59.8316 42.0957C58.0369 43.7358 56.2353 45.3679 54.3699 47.0628Z" fill="#6D6E72"/>
<path d="M91.2983 47.1226C91.6493 45.8424 91.9723 44.649 92.3043 43.4586C93.406 39.5094 94.5137 35.5633 95.6124 31.6132C96.7251 27.6152 97.8327 23.6171 98.9295 19.6151C99.0371 19.2203 99.2315 19.1167 99.6304 19.1177C106.859 19.1306 114.087 19.1276 121.315 19.1266C129.374 19.1256 137.433 19.1186 145.492 19.1346C146.005 19.1356 146.211 18.9701 146.34 18.4905C147.149 15.5075 147.983 12.5304 148.818 9.55435C148.921 9.18446 148.825 9.02491 148.431 9.02591C137.884 9.05183 127.336 9.07677 116.788 9.09572C112.002 9.10369 107.217 9.09771 102.431 9.09771C102.253 9.09771 102.075 9.09771 101.845 9.09771C102.162 7.93919 102.46 6.84347 102.762 5.74975C103.243 4.01296 103.738 2.28016 104.201 0.538381C104.307 0.136586 104.472 -0.000991635 104.904 5.37409e-06C121.985 0.0129665 139.067 0.00996183 156.149 0.0109588C157.779 0.0109588 159.067 0.89728 159.46 2.28412C159.739 3.26916 159.508 4.21534 159.244 5.1625C157.993 9.65303 156.755 14.1465 155.498 18.6351C154.958 20.5593 154.53 22.5314 153.786 24.3759C152.926 26.5055 151.177 27.7408 148.887 28.1177C148.302 28.2144 147.698 28.2094 147.103 28.2094C133.544 28.2144 119.985 28.2153 106.426 28.2014C105.931 28.2014 105.701 28.3101 105.566 28.8185C104.684 32.1077 103.77 35.3878 102.859 38.668C102.103 41.3918 101.34 44.1136 100.567 46.8315C100.533 46.9501 100.357 47.1117 100.247 47.1117C97.2934 47.1256 94.3382 47.1226 91.2983 47.1226Z" fill="#6D6E72"/>
<path d="M4.21436 47.1226C4.55434 45.8873 4.87139 44.7278 5.19243 43.5683C6.02593 40.5583 6.86041 37.5493 7.69491 34.5393C8.66699 31.0358 9.63907 27.5314 10.6122 24.0279C11.5005 20.8275 12.3878 17.6261 13.2772 14.4247C14.1874 11.1445 15.0987 7.86538 16.01 4.58622C16.3858 3.23328 16.7876 1.88629 17.1226 0.522386C17.2333 0.0697434 17.4048 0.030862 17.8305 0.0508022C18.7717 0.0946706 19.7188 0.0198852 20.663 0.0158971C22.4078 0.00692406 24.1515 0.0219201 25.8963 0.00796196C26.3111 0.00497093 26.4616 0.0757469 26.329 0.544341C25.5673 3.23128 24.8385 5.92717 24.0937 8.61909C23.3051 11.4695 22.5095 14.318 21.7189 17.1675C20.8166 20.4157 19.9162 23.665 19.0159 26.9142C18.0189 30.5134 17.0239 34.1126 16.0269 37.7108C15.1924 40.7208 14.3619 43.7328 13.5095 46.7378C13.4656 46.8933 13.2323 47.1046 13.0867 47.1056C10.1645 47.1286 7.24227 47.1226 4.21436 47.1226Z" fill="#6D6E72"/>
<path d="M137.341 63.6441C136.935 63.6441 136.559 63.6441 136.075 63.6441C136.172 61.9323 136.27 60.2264 136.371 58.4587C134.961 60.2981 133.581 62.0997 132.127 63.998C131.741 62.0818 131.375 60.2692 130.991 58.3639C130.579 59.1914 130.203 59.9452 129.829 60.6999C129.433 61.5005 129.009 62.2901 128.654 63.1097C128.46 63.5583 128.208 63.7608 127.722 63.676C127.549 63.6461 127.367 63.671 127.11 63.671C128.631 60.658 130.12 57.7109 131.675 54.6331C132.097 56.8953 132.494 59.0309 132.905 61.2383C134.523 59.0409 136.107 56.8914 137.755 54.6531C137.614 57.7089 137.48 60.6451 137.341 63.6441Z" fill="#3A3A3C"/>
<path d="M9.67515 58.3659C8.90346 59.9262 8.18461 61.3758 7.46875 62.8275C6.99418 63.7886 6.99518 63.7896 5.82568 63.6152C7.31621 60.665 8.79778 57.7318 10.2793 54.7986C10.3162 54.7986 10.3541 54.7996 10.391 54.7996C10.7878 56.9222 11.1846 59.0459 11.5944 61.2373C13.1946 59.0618 14.7609 56.9342 16.3262 54.8066C16.3621 54.8165 16.399 54.8255 16.4349 54.8355C16.2983 57.7627 16.1617 60.6889 16.0231 63.6441C15.6093 63.6441 15.2335 63.6441 14.7599 63.6441C14.8566 61.9392 14.9533 60.2333 15.054 58.4626C13.6432 60.3051 12.2704 62.0987 10.8167 63.996C10.4319 62.0957 10.066 60.2931 9.67515 58.3659Z" fill="#3A3A3C"/>
<path d="M25.0609 64C24.6731 62.0708 24.3071 60.2513 23.9263 58.3609C23.2673 59.693 22.6421 60.9582 22.015 62.2224C21.9273 62.3998 21.8026 62.5673 21.7508 62.7548C21.5165 63.5972 20.9811 63.8804 20.0808 63.5982C21.5644 60.661 23.0549 57.7089 24.6082 54.6331C25.03 56.8903 25.4268 59.021 25.8405 61.2363C27.4487 59.0519 29.019 56.9193 30.5893 54.7867C30.6212 54.7966 30.6521 54.8066 30.684 54.8166C30.5474 57.7448 30.4108 60.673 30.2722 63.6351C29.8605 63.6351 29.4726 63.6351 29.006 63.6351C29.1047 61.9252 29.2034 60.2244 29.3051 58.4587C27.8864 60.3111 26.5125 62.1047 25.0609 64Z" fill="#3A3A3C"/>
<path d="M44.8105 63.7348C45.1256 62.5992 45.4008 61.6002 45.6789 60.6032C46.1655 58.8564 46.664 57.1116 47.1346 55.3599C47.2183 55.0488 47.335 54.9202 47.667 54.9392C48.988 55.014 50.322 54.982 51.6291 55.1545C52.8853 55.321 53.5822 56.2692 53.6331 57.5543C53.7477 60.4108 51.8484 63.0598 49.1884 63.5065C47.7956 63.7418 46.3509 63.666 44.8105 63.7348ZM46.5095 62.4756C47.4746 62.4277 48.344 62.4666 49.1834 62.328C51.4128 61.9581 52.5394 59.0399 52.0887 57.4157C51.9152 56.7926 51.4935 56.3569 50.8395 56.2872C50.0678 56.2054 49.2871 56.1984 48.5105 56.1974C48.3958 56.1974 48.2223 56.3848 48.1765 56.5194C48.0159 56.988 47.8973 57.4716 47.7647 57.9492C47.3579 59.4128 46.9531 60.8764 46.5095 62.4756Z" fill="#3A3A3C"/>
<path d="M153.911 54.6341C155.537 56.7797 157.09 58.8305 158.684 60.9352C158.907 60.1455 159.124 59.3918 159.335 58.6371C159.629 57.5882 159.949 56.5444 160.199 55.4855C160.304 55.0369 160.494 54.8773 160.933 54.9402C161.141 54.9701 161.356 54.9452 161.618 54.9452C160.781 57.9571 159.96 60.9113 159.105 63.987C157.487 61.8614 155.931 59.8175 154.346 57.7358C154.275 57.9352 154.186 58.1476 154.124 58.3689C153.678 59.9761 153.23 61.5822 152.804 63.1944C152.709 63.5523 152.562 63.7378 152.165 63.678C151.94 63.6441 151.707 63.672 151.398 63.672C152.237 60.655 153.057 57.7039 153.911 54.6341Z" fill="#3A3A3C"/>
<path d="M205.348 59.7448C205.963 61.0359 206.571 62.3121 207.218 63.669C206.718 63.669 206.292 63.6959 205.874 63.6531C205.742 63.6391 205.582 63.4606 205.514 63.3201C205.012 62.2772 204.531 61.2244 204.04 60.1755C203.967 60.021 203.876 59.8744 203.794 59.7238C203.748 59.7268 203.702 59.7298 203.656 59.7328C203.287 61.0369 202.919 62.341 202.549 63.65C202.121 63.65 201.728 63.65 201.287 63.65C201.57 62.6022 201.839 61.5852 202.122 60.5713C202.609 58.8225 203.115 57.0798 203.588 55.328C203.669 55.0289 203.786 54.9252 204.091 54.9402C204.918 54.9801 205.747 54.9771 206.574 55.02C207.97 55.0927 208.302 56.0997 208.01 57.2842C207.713 58.4896 207.005 59.3559 205.711 59.6172C205.601 59.6391 205.496 59.6909 205.348 59.7448ZM203.993 58.7837C204.655 58.691 205.187 58.672 205.687 58.5334C206.353 58.349 206.832 57.2891 206.599 56.652C206.46 56.2702 205.364 55.9362 204.854 56.1276C204.787 56.1526 204.705 56.2203 204.687 56.2841C204.464 57.0608 204.252 57.8395 203.993 58.7837Z" fill="#3A3A3C"/>
<path d="M42.3888 54.9452C42.2901 55.3121 42.2333 55.6391 42.1057 55.9362C42.0638 56.0329 41.8395 56.0967 41.6969 56.0987C40.6849 56.1127 39.673 56.1057 38.6102 56.1057C38.4038 56.8405 38.2014 57.5623 37.9771 58.3619C39.1376 58.3619 40.2383 58.3619 41.4287 58.3619C41.322 58.7697 41.2632 59.1067 41.1366 59.4167C41.0977 59.5115 40.8744 59.5763 40.7348 59.5783C39.8544 59.5922 38.9731 59.6002 38.0937 59.5783C37.7617 59.5703 37.5962 59.6421 37.5125 59.998C37.326 60.7966 37.0828 61.5822 36.8405 62.4536C38.011 62.4536 39.1137 62.4536 40.2961 62.4536C40.1934 62.8455 40.1346 63.1655 40.0189 63.4626C39.981 63.5613 39.7986 63.663 39.681 63.664C38.1874 63.677 36.6949 63.673 35.1316 63.673C35.4277 62.6102 35.7119 61.5972 35.993 60.5833C36.4736 58.8495 36.9581 57.1156 37.4267 55.3789C37.5134 55.0578 37.6451 54.9312 38.003 54.9372C39.4437 54.9591 40.8873 54.9452 42.3888 54.9452Z" fill="#3A3A3C"/>
<path d="M145.183 56.1067C144.975 56.8465 144.776 57.5583 144.551 58.3569C145.709 58.3569 146.823 58.3569 148.007 58.3569C147.897 58.7797 147.837 59.1197 147.709 59.4317C147.671 59.5244 147.438 59.5773 147.293 59.5793C146.282 59.5912 145.27 59.5862 144.213 59.5862C143.955 60.5115 143.699 61.4257 143.417 62.4347C144.575 62.4347 145.686 62.4347 146.877 62.4347C146.767 62.8464 146.699 63.1635 146.588 63.4646C146.554 63.5563 146.402 63.661 146.302 63.662C144.794 63.675 143.284 63.671 141.715 63.671C141.987 62.66 142.24 61.6909 142.507 60.7268C142.997 58.9621 143.509 57.2034 143.979 55.4337C144.086 55.0309 144.259 54.9302 144.661 54.9382C146.07 54.9661 147.481 54.9491 148.956 54.9491C148.864 55.3041 148.817 55.6311 148.686 55.9202C148.638 56.0279 148.396 56.0967 148.241 56.0997C147.232 56.1136 146.221 56.1067 145.183 56.1067Z" fill="#3A3A3C"/>
<path d="M90.0639 58.3739C89.9552 58.7886 89.9093 59.1047 89.7817 59.3838C89.7308 59.4935 89.4995 59.5743 89.349 59.5773C88.338 59.5942 87.3261 59.5863 86.2692 59.5863C86.009 60.5314 85.7528 61.4576 85.4746 62.4656C86.673 62.4656 87.7787 62.4656 88.9312 62.4656C88.8315 62.8355 88.7697 63.1426 88.6591 63.4307C88.6192 63.5344 88.4607 63.661 88.355 63.662C86.8445 63.677 85.334 63.672 83.7607 63.672C84.5753 60.7468 85.3779 57.8634 86.1845 54.9671C87.7966 54.9671 89.3859 54.9671 90.9681 54.9671C90.9781 55.006 90.9881 55.0229 90.9861 55.0379C90.8006 56.1077 90.7996 56.1077 89.7279 56.1077C89.014 56.1077 88.2991 56.0947 87.5853 56.1186C87.4457 56.1236 87.2254 56.2423 87.1875 56.356C86.9771 56.994 86.8116 57.6471 86.6092 58.3739C87.7687 58.3739 88.8704 58.3739 90.0639 58.3739Z" fill="#3A3A3C"/>
<path d="M198.344 54.9442C198.24 55.337 198.189 55.6491 198.066 55.9302C198.023 56.0279 197.807 56.0967 197.669 56.0987C196.773 56.1137 195.876 56.1217 194.979 56.0987C194.653 56.0897 194.511 56.1915 194.438 56.5095C194.3 57.1137 194.121 57.7079 193.94 58.3769C195.123 58.3769 196.227 58.3769 197.393 58.3769C197.272 58.8146 197.17 59.1864 197.059 59.5872C196.044 59.5872 195.049 59.6002 194.055 59.5803C193.721 59.5733 193.557 59.6471 193.474 60.005C193.286 60.8026 193.038 61.5852 192.791 62.4556C193.955 62.4556 195.057 62.4556 196.242 62.4556C196.136 62.8674 196.061 63.1984 195.957 63.5195C195.935 63.5863 195.809 63.663 195.73 63.663C194.207 63.671 192.682 63.669 191.088 63.669C191.381 62.6102 191.656 61.6112 191.935 60.6132C192.428 58.8494 192.917 57.0848 193.427 55.326C193.47 55.1775 193.655 54.9641 193.778 54.9621C195.27 54.9352 196.763 54.9442 198.344 54.9442Z" fill="#3A3A3C"/>
<path d="M240.437 62.4646C241.618 62.4646 242.709 62.4646 243.887 62.4646C243.788 62.8574 243.718 63.1874 243.612 63.5045C243.587 63.5802 243.439 63.662 243.347 63.663C241.838 63.673 240.328 63.67 238.744 63.67C238.939 62.9332 239.113 62.2502 239.302 61.5723C239.888 59.4736 240.475 57.3739 241.081 55.2811C241.121 55.1445 241.323 54.9621 241.453 54.9601C242.897 54.9392 244.343 54.9481 245.789 54.9521C245.834 54.9521 245.879 54.9791 245.966 55.006C245.887 55.3121 245.843 55.6271 245.717 55.9053C245.667 56.015 245.436 56.0947 245.285 56.0967C244.273 56.1136 243.261 56.1057 242.208 56.1057C242.001 56.8474 241.8 57.5703 241.578 58.3639C242.75 58.3639 243.853 58.3639 245.03 58.3639C244.913 58.8055 244.816 59.1754 244.708 59.5832C243.699 59.5832 242.705 59.5962 241.711 59.5763C241.36 59.5693 241.186 59.655 241.1 60.0309C240.923 60.8155 240.681 61.5862 240.437 62.4646Z" fill="#3A3A3C"/>
<path d="M235.854 56.9701C233.55 54.8624 229.887 56.4536 229.201 59.5284C229.045 60.2263 229.03 60.9053 229.396 61.5513C229.791 62.2482 230.407 62.5613 231.189 62.6151C232.402 62.6979 233.465 62.2851 234.466 61.6341C234.443 62.8026 234.169 63.1954 233.108 63.5752C232.032 63.9611 230.93 64.016 229.835 63.7109C228.303 63.2852 227.419 61.8196 227.643 60.1546C228.054 57.1037 230.868 54.679 233.93 54.7467C234.655 54.7627 235.33 54.9701 235.948 55.3599C236.2 55.5194 236.346 55.671 236.185 55.999C236.041 56.2921 235.969 56.6211 235.854 56.9701Z" fill="#3A3A3C"/>
<path d="M114.149 54.649C114.726 57.7208 115.276 60.652 115.834 63.6281C115.363 63.6281 114.912 63.6281 114.399 63.6281C114.294 63.017 114.2 62.3689 114.061 61.7318C114.032 61.5982 113.832 61.4088 113.707 61.4058C112.745 61.3779 111.781 61.3779 110.818 61.4018C110.655 61.4058 110.45 61.5314 110.344 61.664C109.95 62.1545 109.563 62.655 109.227 63.1855C108.985 63.5683 108.697 63.7348 108.25 63.676C108.023 63.6461 107.789 63.671 107.433 63.671C109.674 60.66 111.86 57.7238 114.149 54.649ZM113.398 57.3828C112.7 58.3659 112.054 59.2782 111.352 60.2672C112.258 60.2672 113.036 60.2672 113.853 60.2672C113.703 59.3131 113.559 58.4048 113.398 57.3828Z" fill="#3A3A3C"/>
<path d="M70.9711 63.6709C70.5823 63.6709 70.2513 63.672 69.9203 63.67C69.8056 63.669 69.6919 63.66 69.5294 63.653C69.4227 63.0149 69.3021 62.3868 69.2194 61.7547C69.1835 61.4865 69.0848 61.3828 68.8126 61.3858C67.8495 61.3958 66.8864 61.3768 65.9243 61.4027C65.7637 61.4067 65.5653 61.5483 65.4567 61.6839C65.0748 62.1635 64.7029 62.653 64.3709 63.1675C64.1187 63.5593 63.8176 63.7467 63.347 63.6769C63.1256 63.644 62.8953 63.6709 62.5583 63.6709C64.8106 60.648 67 57.7088 69.2772 54.653C69.8545 57.7288 70.4068 60.6689 70.9711 63.6709ZM68.9811 60.2801C68.8275 59.3041 68.684 58.3928 68.5245 57.3768C67.8226 58.3718 67.1805 59.2831 66.4766 60.2801C67.3849 60.2801 68.1516 60.2801 68.9811 60.2801Z" fill="#3A3A3C"/>
<path d="M181.873 61.4885C182.085 62.4207 182.585 62.7438 183.561 62.6161C184.425 62.5035 185.168 61.7906 185.054 61.0548C185.001 60.7128 184.71 60.3559 184.432 60.1146C184.075 59.8045 183.622 59.6042 183.212 59.3549C181.615 58.3848 182.074 56.9491 182.844 56.0099C183.783 54.8674 185.047 54.5413 186.472 54.8723C186.733 54.9331 186.995 55.0957 187.201 55.2741C187.778 55.7726 187.715 56.1365 187.036 56.4337C186.84 56.5194 186.645 56.6061 186.454 56.6909C185.779 55.7537 184.717 55.663 184.028 56.4726C183.541 57.0438 183.57 57.658 184.161 58.1146C184.551 58.4167 185.002 58.6391 185.42 58.9063C186.066 59.318 186.68 59.7856 186.603 60.653C186.532 61.4606 186.206 62.1884 185.625 62.7756C184.57 63.8434 183.285 64.0897 181.869 63.7597C181.19 63.6012 180.744 63.0369 180.675 62.3898C180.646 62.1166 180.688 61.9112 180.997 61.8195C181.294 61.7298 181.578 61.6012 181.873 61.4885Z" fill="#3A3A3C"/>
<path d="M102.726 55.0169C103.825 55.0169 104.852 54.984 105.876 55.0249C107.251 55.0807 107.536 56.0977 107.307 57.1555C107.025 58.4536 106.002 59.7547 104.207 59.7039C103.842 59.6939 103.476 59.7447 103.113 59.7188C102.776 59.6949 102.651 59.8415 102.572 60.1425C102.299 61.1794 101.986 62.2054 101.726 63.2453C101.64 63.5852 101.501 63.7188 101.154 63.6769C100.91 63.648 100.659 63.6709 100.324 63.6709C101.136 60.7477 101.935 57.8674 102.726 55.0169ZM103.074 58.6809C103.765 58.6081 104.329 58.5972 104.869 58.4785C105.555 58.328 106.058 57.4287 105.87 56.7597C105.826 56.6021 105.687 56.3798 105.556 56.3519C105.029 56.2393 104.487 56.1844 103.95 56.1276C103.888 56.1206 103.773 56.2253 103.752 56.2981C103.532 57.0389 103.327 57.7826 103.074 58.6809Z" fill="#3A3A3C"/>
<path d="M213.493 63.9651C213.029 60.9103 212.582 57.9661 212.139 55.0459C212.217 54.994 212.244 54.9621 212.272 54.9601C213.566 54.8604 213.571 54.8594 213.735 56.1645C213.926 57.689 214.106 59.2143 214.292 60.7398C214.295 60.7677 214.325 60.7916 214.383 60.8774C214.587 60.5593 214.767 60.2582 214.967 59.9711C216.075 58.3789 217.185 56.7866 218.307 55.2044C218.396 55.0797 218.582 54.9721 218.734 54.9561C219.075 54.9193 219.423 54.9442 219.883 54.9442C217.738 57.9731 215.648 60.9232 213.493 63.9651Z" fill="#3A3A3C"/>
<path d="M120.387 63.6709C120.63 62.7836 120.803 61.9252 121.104 61.1136C121.47 60.1276 121.421 59.2193 121.018 58.2532C120.575 57.1924 120.254 56.0807 119.878 54.987C119.965 54.9661 119.997 54.9521 120.029 54.9511C121.297 54.8923 121.296 54.8923 121.693 56.0827C121.829 56.4905 121.971 56.8963 122.105 57.304C122.232 57.6949 122.353 58.0877 122.485 58.5055C122.538 58.4865 122.614 58.4845 122.649 58.4456C123.616 57.3788 124.592 56.319 125.537 55.2333C125.981 54.7238 126.525 55.0488 127.08 55.0239C126.682 55.4715 126.289 55.9242 125.884 56.3659C124.979 57.3559 124.03 58.311 123.178 59.3439C122.851 59.7397 122.7 60.2991 122.536 60.8055C122.278 61.6052 122.058 62.4187 121.861 63.2362C121.78 63.5762 121.64 63.7128 121.289 63.6769C121.012 63.648 120.73 63.6709 120.387 63.6709Z" fill="#3A3A3C"/>
<path d="M167.929 56.1147C167.135 56.1147 166.408 56.1147 165.607 56.1147C165.707 55.7538 165.776 55.4397 165.888 55.1426C165.921 55.0529 166.075 54.9531 166.175 54.9531C168.079 54.9422 169.984 54.9452 171.941 54.9452C171.829 55.356 171.729 55.7169 171.621 56.1067C171.02 56.1067 170.441 56.1306 169.864 56.0987C169.453 56.0758 169.268 56.1895 169.155 56.6202C168.597 58.7239 167.995 60.8156 167.408 62.9113C167.194 63.674 167.192 63.673 166.395 63.672C166.231 63.672 166.067 63.672 165.835 63.672C166.534 61.1506 167.22 58.678 167.929 56.1147Z" fill="#3A3A3C"/>
<path d="M81.8693 54.9461C81.7736 55.317 81.7238 55.6291 81.6041 55.9112C81.5603 56.0129 81.3509 56.0916 81.2133 56.0976C80.6999 56.1195 80.1844 56.1216 79.6699 56.1006C79.3559 56.0877 79.2133 56.1794 79.1246 56.5074C78.5204 58.7367 77.8773 60.955 77.2731 63.1844C77.1744 63.5493 77.0438 63.7238 76.65 63.6779C76.3758 63.646 76.0947 63.6719 75.7666 63.6719C76.4685 61.1435 77.1545 58.6679 77.8594 56.1275C77.0787 56.1275 76.3589 56.1275 75.5503 56.1275C75.652 55.7347 75.7228 55.4057 75.8315 55.0907C75.8564 55.0189 76.0129 54.9531 76.1096 54.9521C77.9989 54.9441 79.8903 54.9461 81.8693 54.9461Z" fill="#3A3A3C"/>
<path d="M58.4745 63.651C57.997 63.651 57.5842 63.651 57.1086 63.651C57.3629 62.7308 57.6061 61.8455 57.8534 60.9611C58.3669 59.1196 58.8973 57.2822 59.3838 55.4337C59.4915 55.0229 59.6709 54.8943 60.0668 54.9422C60.326 54.9731 60.5922 54.9482 60.8963 54.9482C60.0837 57.8694 59.2811 60.7547 58.4745 63.651Z" fill="#3A3A3C"/>
<path d="M3.79163 54.9452C3.39681 56.3739 3.01594 57.7527 2.63309 59.1316C2.25323 60.4975 1.85743 61.8594 1.49551 63.2303C1.40977 63.5543 1.2981 63.7178 0.937179 63.678C0.644058 63.6451 0.343968 63.671 0 63.671C0.37986 62.2981 0.744761 60.9661 1.11665 59.6351C1.50648 58.2363 1.91724 56.8435 2.28514 55.4397C2.38683 55.0519 2.5384 54.8773 2.95215 54.9382C3.20839 54.9761 3.47558 54.9452 3.79163 54.9452Z" fill="#3A3A3C"/>
<path d="M221.348 63.672C221.966 61.4427 222.564 59.2822 223.163 57.1207C223.327 56.5324 223.501 55.9472 223.65 55.3559C223.724 55.0618 223.836 54.8944 224.183 54.9392C224.476 54.9761 224.777 54.9472 225.143 54.9472C224.822 56.0937 224.516 57.1845 224.213 58.2772C223.763 59.8993 223.298 61.5175 222.872 63.1456C222.765 63.5564 222.597 63.7398 222.163 63.679C221.921 63.6441 221.67 63.672 221.348 63.672Z" fill="#3A3A3C"/>
<path d="M240.78 37.2922C240.575 37.3231 240.421 37.4347 240.274 37.5773C239.337 38.4856 238.402 39.3978 237.45 40.2911C236.154 41.5075 234.834 42.6959 233.542 43.9173C232.428 44.9711 231.344 46.0579 230.238 47.1197C230.093 47.2593 229.98 47.4796 229.666 47.4617C233.992 31.8784 238.313 16.3151 242.643 0.719849C242.889 0.857436 242.967 1.10872 243.061 1.30613C243.941 3.16555 244.89 4.99105 245.832 6.81957C246.525 8.16653 247.187 9.53044 247.868 10.8844C247.91 10.9671 247.992 11.0309 248.055 11.1027C248.209 11.7328 248.585 12.2603 248.868 12.8305C249.862 14.8325 250.851 16.8365 251.854 18.8335C252.677 20.4726 253.513 22.1057 254.351 23.7378C254.492 24.012 254.463 24.2004 254.234 24.4337C253.611 25.0688 252.944 25.6531 252.299 26.2632C251.27 27.2343 250.264 28.2283 249.235 29.1994C247.828 30.5274 246.395 31.8295 244.997 33.1675C243.917 34.2004 242.828 35.2214 241.73 36.2353C241.383 36.5534 240.977 36.8335 240.78 37.2922Z" fill="#018C45"/>
<path d="M232.448 37.2922C232.243 37.3231 232.089 37.4347 231.942 37.5773C231.005 38.4856 230.07 39.3978 229.118 40.2911C227.822 41.5075 226.502 42.6959 225.21 43.9173C224.096 44.9711 223.012 46.0579 221.905 47.1197C221.76 47.2593 221.647 47.4796 221.333 47.4617C225.659 31.8784 229.98 16.3151 234.31 0.719849C234.556 0.857436 234.634 1.10872 234.728 1.30613C235.608 3.16555 236.557 4.99105 237.499 6.81957C238.192 8.16653 238.854 9.53044 239.535 10.8844C239.577 10.9671 239.659 11.0309 239.722 11.1027C239.876 11.7328 240.252 12.2603 240.535 12.8305C241.529 14.8325 242.518 16.8365 243.521 18.8335C244.344 20.4726 245.18 22.1057 246.018 23.7378C246.159 24.012 246.13 24.2004 245.901 24.4337C245.278 25.0688 244.611 25.6531 243.966 26.2632C242.937 27.2343 241.931 28.2283 240.902 29.1994C239.495 30.5274 238.062 31.8295 236.664 33.1675C235.584 34.2004 234.495 35.2214 233.397 36.2353C233.051 36.5534 232.645 36.8335 232.448 37.2922Z" fill="#F5791F"/>
</g>
<defs>
<clipPath id="clip0_309_359">
<rect width="254.436" height="64" fill="white"/>
</clipPath>
</defs>
</svg>
