<svg width="78" height="64" viewBox="0 0 78 64" fill="none" xmlns="http://www.w3.org/2000/svg">
<rect width="77.7143" height="64" rx="11" fill="black"/>
<path d="M49.6276 14.8572C45.7512 14.8572 41.8078 16.4882 39.292 19.0732L40.7196 21.9286L40.1162 22.4109C37.449 17.8121 32.5451 14.8572 27.3254 14.8572C19.1681 14.8572 12.5726 21.9956 12.5726 30.3584V48.3754C12.5655 48.5291 12.5906 48.6826 12.6461 48.826C12.7016 48.9694 12.7864 49.0998 12.8951 49.2086C13.0037 49.3175 13.1339 49.4026 13.2773 49.4583C13.4206 49.5141 13.574 49.5395 13.7277 49.5327H19.644C19.9308 49.5327 20.2059 49.4188 20.4088 49.2159C20.6116 49.0131 20.7255 48.738 20.7255 48.4511V30.2221C20.7255 26.0754 23.2413 22.677 27.5243 22.677C31.5348 22.677 34.3903 25.6665 34.3903 30.0859V45.0442C34.3802 45.1923 34.4007 45.3408 34.4505 45.4806C34.5003 45.6205 34.5784 45.7486 34.6799 45.857C34.7812 45.9653 34.904 46.0516 35.0402 46.1104C35.1764 46.1694 35.3234 46.1996 35.4719 46.1992H41.1264C41.2748 46.1996 41.4217 46.1694 41.558 46.1104C41.6943 46.0516 41.8169 45.9653 41.9184 45.857C42.0199 45.7486 42.0979 45.6205 42.1478 45.4806C42.1976 45.3408 42.218 45.1923 42.208 45.0442V30.0859C42.208 25.6665 45.1996 22.677 49.2102 22.677C53.4931 22.677 55.8727 26.0754 55.8727 30.2221V48.4446C55.8862 48.7399 56.0145 49.0183 56.2303 49.2204C56.446 49.4224 56.7322 49.5322 57.0278 49.5262H62.8683C63.0222 49.5333 63.1759 49.5082 63.3194 49.4525C63.4631 49.3968 63.5935 49.3119 63.7024 49.203C63.8113 49.0941 63.8963 48.9637 63.952 48.82C64.0076 48.6764 64.0327 48.5228 64.0256 48.369V30.3584C64.0256 21.9956 57.7027 14.8572 49.6124 14.8572" fill="#2FF19E"/>
</svg>
