<svg width="74" height="64" viewBox="0 0 74 64" fill="none" xmlns="http://www.w3.org/2000/svg">
<path d="M11.193 47.9827C8.5206 45.3103 7.25378 41.8569 7.25378 37.2235C7.25378 31.4621 10.1345 26.8634 13.7267 24.6769C16.4338 23.0109 19.141 22.3168 22.5076 22.3168C25.2668 22.3168 27.8004 23.0109 30.0737 24.4513C33.4403 26.5858 35.6269 31.1324 35.6269 36.2517C35.6269 40.486 34.1345 44.9979 31.167 47.8265C28.4078 50.3602 24.9544 51.5924 20.7202 51.5924C16.833 51.6096 13.3275 50.1693 11.193 47.9827ZM25.3536 46.1085C26.8807 44.1476 27.4534 40.9025 27.4534 37.2756C27.4534 33.7354 26.7071 30.5944 25.6659 28.5814C24.7983 26.8808 23.3926 26.0478 21.7787 26.0478C19.9913 26.0478 18.7592 26.7072 17.7527 27.922C16.4859 29.5012 15.5314 32.6074 15.5314 36.755C15.5314 41.1628 16.1388 44.0087 17.6659 45.8829C18.898 47.3753 20.2863 47.8439 21.6399 47.8439C23.0455 47.8612 24.2256 47.6356 25.3536 46.1085Z" fill="#081F2C"/>
<path d="M39.1669 47.601L41.475 47.4622C41.5617 47.4622 41.6485 47.3754 41.6485 47.2366L41.7006 26.6032L39.1149 26.4643C39.1149 25.3364 39.1669 24.0175 39.2017 22.8374C41.3882 22.7854 45.7092 22.6986 48.2082 22.6986C52.4424 22.6986 55.6008 22.6986 58.1344 23.8266C60.0954 24.7463 61.8481 27.0196 61.8481 29.2409C61.8481 32.2084 59.5748 34.5337 56.7808 35.575V35.922C60.4598 36.5294 63.3752 39.3233 63.3752 43.0023C63.3752 47.5836 58.8806 51.1758 51.3492 51.1758C49.9435 51.1758 46.1084 51.1238 45.2233 51.1238C43.7309 51.1238 40.8155 51.1238 39.0975 51.1238C39.1149 50.0478 39.1149 48.729 39.1669 47.601ZM48.8329 46.5945C48.8329 47.5489 49.7526 47.7745 50.7591 47.7745C53.5531 47.7745 55.7049 46.2474 55.7049 43.3147C55.7049 40.8678 53.6051 38.5077 50.065 38.5077C49.6312 38.5077 49.0238 38.5077 48.937 38.5598L48.8329 46.5945ZM48.9197 34.9676C49.0585 35.0196 49.7006 35.0196 50.0129 35.0196C52.7722 35.0196 54.7331 33.2669 54.7331 30.5598C54.7331 28.2518 52.9457 26.152 50.4468 26.152C49.7006 26.152 49.2667 26.204 48.9544 26.2908L48.9197 34.9676Z" fill="#081F2C"/>
<path d="M1.97831 63.9999H71.1497C72.243 63.9999 73.128 63.1149 73.128 62.0216C73.128 60.9284 72.243 60.0433 71.1497 60.0433H1.97831C0.885033 60.0433 0 60.9284 0 62.0216C0 63.1149 0.885033 63.9999 1.97831 63.9999Z" fill="#081F2C"/>
<path d="M62.1432 12.8417L36.564 0L10.9848 12.8417C10.551 13.0672 10.7245 13.6746 11.2278 13.6746H61.9002C62.4035 13.6746 62.577 13.0672 62.1432 12.8417Z" fill="#081F2C"/>
<path d="M6.43812 16.4165H66.6898C67.3492 16.4165 67.8872 16.9545 67.8872 17.6139V18.308C67.8872 18.9675 67.3492 19.5054 66.6898 19.5054H6.43812C5.77868 19.5054 5.24072 18.9675 5.24072 18.308V17.6139C5.24072 16.9545 5.77868 16.4165 6.43812 16.4165Z" fill="#081F2C"/>
<path d="M6.43812 54.2993H66.6898C67.3492 54.2993 67.8872 54.8373 67.8872 55.4967V56.1909C67.8872 56.8503 67.3492 57.3883 66.6898 57.3883H6.43812C5.77868 57.3883 5.24072 56.8503 5.24072 56.1909V55.4967C5.24072 54.8373 5.77868 54.2993 6.43812 54.2993Z" fill="#081F2C"/>
</svg>
