<svg width="64" height="65" viewBox="0 0 64 65" fill="none" xmlns="http://www.w3.org/2000/svg">
<path d="M49.9119 49.7052C47.401 49.7052 45.0393 48.7275 43.2637 46.9528L33.6644 37.3532C32.9904 36.6775 31.8158 36.6795 31.142 37.3532L21.5077 46.9879C19.7321 48.7626 17.3704 49.7403 14.8595 49.7403H12.9678L25.1256 61.8979C28.9224 65.6947 35.0786 65.6947 38.8757 61.8979L51.0681 49.7052H49.9119Z" fill="#32BCAD"/>
<path d="M14.859 15.7507C17.3699 15.7507 19.7315 16.7284 21.5071 18.5031L31.1415 28.1392C31.8353 28.8333 32.9683 28.8359 33.6639 28.1384L43.2631 18.5382C45.0388 16.7635 47.4004 15.7858 49.9113 15.7858H51.0675L38.8754 3.59343C35.078 -0.203668 28.9219 -0.203668 25.1251 3.59343L12.9678 15.7507L14.859 15.7507Z" fill="#32BCAD"/>
<path d="M61.1526 25.8706L53.7847 18.5027C53.6225 18.5677 53.4468 18.6082 53.2613 18.6082H49.9113C48.1794 18.6082 46.484 19.3107 45.2602 20.5354L35.6612 30.1347C34.7629 31.033 33.5826 31.4824 32.4033 31.4824C31.2229 31.4824 30.0434 31.033 29.1454 30.1355L19.5101 20.5003C18.2863 19.2754 16.5909 18.5732 14.859 18.5732H10.7399C10.5642 18.5732 10.4 18.5318 10.245 18.4734L2.84782 25.8706C-0.949273 29.6677 -0.949273 35.8236 2.84782 39.6207L10.2447 47.0176C10.4 46.9592 10.5642 46.9178 10.7399 46.9178H14.859C16.5909 46.9178 18.2863 46.2156 19.5101 44.9909L29.1445 35.3566C30.8859 33.6166 33.9216 33.616 35.6612 35.3574L45.2602 44.9558C46.484 46.1805 48.1794 46.883 49.9113 46.883H53.2613C53.4468 46.883 53.6225 46.9235 53.7847 46.9885L61.1526 39.6206C64.9494 35.8235 64.9494 29.6677 61.1526 25.8706" fill="#32BCAD"/>
</svg>
