<svg width="64" height="64" viewBox="0 0 64 64" fill="none" xmlns="http://www.w3.org/2000/svg">
<path d="M32 64C49.6731 64 64 49.6731 64 32C64 14.3269 49.6731 0 32 0C14.3269 0 0 14.3269 0 32C0 49.6731 14.3269 64 32 64Z" fill="url(#paint0_radial_30_1667)"/>
<g opacity="0.09726">
<path d="M32 59.2664C47.0587 59.2664 59.2663 47.0589 59.2663 32.0002C59.2663 16.9414 47.0587 4.73389 32 4.73389C16.9412 4.73389 4.73372 16.9414 4.73372 32.0002C4.73372 47.0589 16.9412 59.2664 32 59.2664Z" stroke="white" stroke-width="0.00102402"/>
<path d="M32.0947 53.9646C44.1731 53.9646 53.9645 44.1731 53.9645 32.0947C53.9645 20.0164 44.1731 10.2249 32.0947 10.2249C20.0163 10.2249 10.2249 20.0164 10.2249 32.0947C10.2249 44.1731 20.0163 53.9646 32.0947 53.9646Z" stroke="white" stroke-width="0.00102402"/>
<path d="M32.1893 47.9056C40.869 47.9056 47.9053 40.8693 47.9053 32.1896C47.9053 23.5099 40.869 16.4736 32.1893 16.4736C23.5096 16.4736 16.4734 23.5099 16.4734 32.1896C16.4734 40.8693 23.5096 47.9056 32.1893 47.9056Z" stroke="white" stroke-width="0.00102402"/>
</g>
<g filter="url(#filter0_d_30_1667)">
<path d="M9.29008 52.0166C9.14447 51.6521 9.04203 51.281 9.11038 50.883C9.17836 50.5628 13.0867 32.222 13.6131 29.7484C13.6586 29.0514 13.9323 27.8814 13.1385 27.4725C13.663 26.9057 14.4195 26.1073 15.408 25.0772L16.9269 25.7979C17.1743 25.7262 17.517 25.581 17.9549 25.3623C18.4351 25.1474 19.0603 24.6984 20.267 24.6984C21.2538 24.6984 22.461 24.4409 24.0106 25.3623C24.6147 25.7979 25.3486 26.5516 25.628 28.1142C25.9074 29.6768 24.5079 38.4976 24.2916 38.8568C22.8483 43.3221 20.8992 43.6652 17.298 43.6652C16.868 43.71 15.3402 43.4709 15.0171 43.3221C14.3357 43.0081 14.3152 43.025 14.1543 43.7854C14.1026 44.0299 12.4717 51.4959 12.4418 51.5618C12.2541 51.9549 11.9728 52.2705 11.6312 52.5367C11.4511 52.6485 11.2654 52.7475 11.0486 52.7662C11.0137 52.7628 10.9789 52.7592 10.944 52.7554C10.2446 52.841 9.65723 52.675 9.29008 52.0166ZM20.2989 27.4674C18.6321 27.1434 17.0183 28.2319 16.6943 29.8987L15.2294 37.435C14.9054 39.1018 15.9939 40.7156 17.6607 41.0396L17.6655 41.0405C19.3323 41.3645 20.9461 40.276 21.2701 38.6092L22.735 31.0729C23.059 29.4061 21.9705 27.7923 20.3037 27.4683L20.2989 27.4674Z" fill="black"/>
</g>
<path d="M9.29008 52.0166C9.14447 51.6521 9.04203 51.281 9.11038 50.883C9.17836 50.5628 13.0867 32.222 13.6131 29.7484C13.6586 29.0514 13.9323 27.8814 13.1385 27.4725C13.663 26.9057 14.4195 26.1073 15.408 25.0772L16.9269 25.7979C17.1743 25.7262 17.517 25.581 17.9549 25.3623C18.4351 25.1474 19.0603 24.6984 20.267 24.6984C21.2538 24.6984 22.461 24.4409 24.0106 25.3623C24.6147 25.7979 25.3486 26.5516 25.628 28.1142C25.9074 29.6768 24.5079 38.4976 24.2916 38.8568C22.8483 43.3221 20.8992 43.6652 17.298 43.6652C16.868 43.71 15.3402 43.4709 15.0171 43.3221C14.3357 43.0081 14.3152 43.025 14.1543 43.7854C14.1026 44.0299 12.4717 51.4959 12.4418 51.5618C12.2541 51.9549 11.9728 52.2705 11.6312 52.5367C11.4511 52.6485 11.2654 52.7475 11.0486 52.7662C11.0137 52.7628 10.9789 52.7592 10.944 52.7554C10.2446 52.841 9.65723 52.675 9.29008 52.0166ZM20.2989 27.4674C18.6321 27.1434 17.0183 28.2319 16.6943 29.8987L15.2294 37.435C14.9054 39.1018 15.9939 40.7156 17.6607 41.0396L17.6655 41.0405C19.3323 41.3645 20.9461 40.276 21.2701 38.6092L22.735 31.0729C23.059 29.4061 21.9705 27.7923 20.3037 27.4683L20.2989 27.4674Z" fill="#FEFEFE"/>
<g filter="url(#filter1_d_30_1667)">
<path d="M43.4305 27.326C43.5441 27.2254 44.8144 25.5436 46.2275 25.1597C46.4909 25.0307 46.7669 24.9357 47.0445 24.8433C47.5573 24.6598 48.942 24.5115 49.0999 24.531C49.6274 24.6547 50.6386 24.531 51.691 25.3395C52.2601 25.8057 52.7653 26.33 53.1535 26.9611C53.3035 27.2344 53.3976 27.5305 53.5098 27.82C53.8378 28.8491 53.0912 33.1288 52.8852 33.8582C52.8047 34.1437 52.7865 34.4654 52.4923 34.6479C52.1537 34.7879 44.9287 34.7051 44.6663 34.818C44.5334 34.8956 44.4434 35.0107 44.3853 35.1524C44.2791 35.3894 43.8012 37.7391 43.8421 38.3528C43.8602 39.1105 44.1958 39.6945 44.8144 40.1222C45.22 40.3432 45.6342 40.5358 46.1089 40.5411C46.4267 40.5435 46.7457 40.5717 47.0568 40.4784C47.256 40.4286 47.4607 40.4019 47.6554 40.3335C47.7805 40.2866 47.9019 40.2311 48.0218 40.1722C48.4497 39.9743 48.8392 39.7185 49.1891 39.4021C49.6414 39.0541 50.0555 38.6442 50.6386 38.5073C50.911 38.4516 51.1621 38.5296 51.4105 38.6283C51.7474 38.7847 51.9536 39.056 52.084 39.3946C52.2499 39.9421 52.0045 40.3782 51.7025 40.7991C51.6605 40.8628 49.9552 42.7021 47.5906 43.3402C47.3344 43.4235 47.0763 43.4976 46.8052 43.5119C46.4185 43.4949 44.9969 43.9455 42.8444 42.8854C42.5462 42.6885 42.1896 42.5661 41.9968 42.2323C41.231 41.3326 40.5907 40.3335 40.5907 37.7175C40.6483 36.6255 41.5343 33.0231 41.6606 32.2646C42.2514 29.4307 42.8413 27.7845 43.4305 27.326ZM48.305 27.3408C46.8138 27.3408 45.5375 28.411 45.2776 29.8794L44.8757 32.1498H50.3972L50.7842 30.0776C50.8103 29.9377 50.8235 29.7956 50.8235 29.6532C50.8235 28.3761 49.7882 27.3408 48.5111 27.3408H48.305Z" fill="black"/>
</g>
<path d="M43.4305 27.326C43.5441 27.2254 44.8144 25.5436 46.2275 25.1597C46.4909 25.0307 46.7669 24.9357 47.0445 24.8433C47.5573 24.6598 48.942 24.5115 49.0999 24.531C49.6274 24.6547 50.6386 24.531 51.691 25.3395C52.2601 25.8057 52.7653 26.33 53.1535 26.9611C53.3035 27.2344 53.3976 27.5305 53.5098 27.82C53.8378 28.8491 53.0912 33.1288 52.8852 33.8582C52.8047 34.1437 52.7865 34.4654 52.4923 34.6479C52.1537 34.7879 44.9287 34.7051 44.6663 34.818C44.5334 34.8956 44.4434 35.0107 44.3853 35.1524C44.2791 35.3894 43.8012 37.7391 43.8421 38.3528C43.8602 39.1105 44.1958 39.6945 44.8144 40.1222C45.22 40.3432 45.6342 40.5358 46.1089 40.5411C46.4267 40.5435 46.7457 40.5717 47.0568 40.4784C47.256 40.4286 47.4607 40.4019 47.6554 40.3335C47.7805 40.2866 47.9019 40.2311 48.0218 40.1722C48.4497 39.9743 48.8392 39.7185 49.1891 39.4021C49.6414 39.0541 50.0555 38.6442 50.6386 38.5073C50.911 38.4516 51.1621 38.5296 51.4105 38.6283C51.7474 38.7847 51.9536 39.056 52.084 39.3946C52.2499 39.9421 52.0045 40.3782 51.7025 40.7991C51.6605 40.8628 49.9552 42.7021 47.5906 43.3402C47.3344 43.4235 47.0763 43.4976 46.8052 43.5119C46.4185 43.4949 44.9969 43.9455 42.8444 42.8854C42.5462 42.6885 42.1896 42.5661 41.9968 42.2323C41.231 41.3326 40.5907 40.3335 40.5907 37.7175C40.6483 36.6255 41.5343 33.0231 41.6606 32.2646C42.2514 29.4307 42.8413 27.7845 43.4305 27.326ZM48.305 27.3408C46.8138 27.3408 45.5375 28.411 45.2776 29.8794L44.8757 32.1498H50.3972L50.7842 30.0776C50.8103 29.9377 50.8235 29.7956 50.8235 29.6532C50.8235 28.3761 49.7882 27.3408 48.5111 27.3408H48.305Z" fill="#FEFEFE"/>
<g filter="url(#filter2_d_30_1667)">
<path d="M34.7659 42.8492C32.374 43.9203 30.1547 44.0106 27.3385 42.3001C26.1775 40.9675 26.0335 39.8331 25.9634 39.4158C25.9994 39.106 26.2291 38.9602 26.4669 38.8212C26.9863 38.5501 27.5536 38.3787 28.0521 38.0617C28.1957 38.0083 28.3435 37.9928 28.4954 38.0076C28.8841 38.06 29.0053 38.3664 29.1346 38.6728C30.0145 40.7575 31.9582 41.2388 33.7519 39.7964C34.2993 39.3561 34.8219 38.8703 34.9509 38.1182C35.016 37.7319 35.177 37.3522 35.0221 36.9525C34.7598 35.9198 33.9642 35.5419 33.0324 35.352C32.0154 35.1448 31.0185 34.8898 30.1547 34.2802C29.4929 33.8133 28.8845 33.2918 28.5193 32.543C28.3979 32.1275 28.304 31.7055 28.1898 31.288C28.0457 30.7044 28.2252 30.1445 28.3106 29.5774C29.1346 26.7705 30.5272 26.2347 30.9467 25.9085C31.7272 25.3676 32.6492 25.1703 33.5207 24.8505L35.7628 24.806C36.9661 25.0245 38.0111 25.5249 38.7863 26.5052C39.606 27.4417 39.6772 28.2521 39.0204 29.1574C38.3488 29.6567 37.6601 29.7813 36.9436 29.2472C36.8296 29.1498 36.7279 29.0381 36.6355 28.9196C35.3727 27.3031 34.11 27.099 32.374 28.2328C32.29 28.2877 32.2119 28.351 32.1349 28.4144C31.8151 28.731 31.6075 29.1116 31.4924 29.5444C31.4053 29.7951 31.3888 30.053 31.4165 30.3149C31.4316 30.4419 31.4674 30.5641 31.503 30.6862C31.5416 30.8064 31.5837 30.9254 31.6416 31.0378C31.7736 31.3154 32.0146 31.4724 32.2729 31.6116C33.0502 32.0455 33.9396 32.1232 34.7659 32.3998C36.8499 33.0728 38.1185 34.4232 38.312 36.6676C37.9271 40.498 37.3389 40.8637 34.7659 42.8492Z" fill="black"/>
</g>
<path d="M34.7659 42.8492C32.374 43.9203 30.1547 44.0106 27.3385 42.3001C26.1775 40.9675 26.0335 39.8331 25.9634 39.4158C25.9994 39.106 26.2291 38.9602 26.4669 38.8212C26.9863 38.5501 27.5536 38.3787 28.0521 38.0617C28.1957 38.0083 28.3435 37.9928 28.4954 38.0076C28.8841 38.06 29.0053 38.3664 29.1346 38.6728C30.0145 40.7575 31.9582 41.2388 33.7519 39.7964C34.2993 39.3561 34.8219 38.8703 34.9509 38.1182C35.016 37.7319 35.177 37.3522 35.0221 36.9525C34.7598 35.9198 33.9642 35.5419 33.0324 35.352C32.0154 35.1448 31.0185 34.8898 30.1547 34.2802C29.4929 33.8133 28.8845 33.2918 28.5193 32.543C28.3979 32.1275 28.304 31.7055 28.1898 31.288C28.0457 30.7044 28.2252 30.1445 28.3106 29.5774C29.1346 26.7705 30.5272 26.2347 30.9467 25.9085C31.7272 25.3676 32.6492 25.1703 33.5207 24.8505L35.7628 24.806C36.9661 25.0245 38.0111 25.5249 38.7863 26.5052C39.606 27.4417 39.6772 28.2521 39.0204 29.1574C38.3488 29.6567 37.6601 29.7813 36.9436 29.2472C36.8296 29.1498 36.7279 29.0381 36.6355 28.9196C35.3727 27.3031 34.11 27.099 32.374 28.2328C32.29 28.2877 32.2119 28.351 32.1349 28.4144C31.8151 28.731 31.6075 29.1116 31.4924 29.5444C31.4053 29.7951 31.3888 30.053 31.4165 30.3149C31.4316 30.4419 31.4674 30.5641 31.503 30.6862C31.5416 30.8064 31.5837 30.9254 31.6416 31.0378C31.7736 31.3154 32.0146 31.4724 32.2729 31.6116C33.0502 32.0455 33.9396 32.1232 34.7659 32.3998C36.8499 33.0728 38.1185 34.4232 38.312 36.6676C37.9271 40.498 37.3389 40.8637 34.7659 42.8492Z" fill="#FEFEFE"/>
<path d="M31.3594 15.6069L31.9207 15.6944L31.5763 17.9048L31.015 17.8174L31.3594 15.6069Z" fill="url(#paint1_radial_30_1667)"/>
<path d="M28.1159 12.958L28.3699 12.4499L30.0141 13.272L29.7601 13.7801L28.1159 12.958Z" fill="url(#paint2_radial_30_1667)"/>
<path d="M30.1026 14.9012L30.4031 15.3832L28.3314 16.6746L28.0309 16.1926L30.1026 14.9012Z" fill="url(#paint3_radial_30_1667)"/>
<path d="M32.0533 11.1768L32.6128 11.2748L32.3098 13.0037L31.7503 12.9057L32.0533 11.1768Z" fill="url(#paint4_radial_30_1667)"/>
<path d="M35.2146 12.0609L35.5157 12.5426L33.5192 13.7904L33.2181 13.3087L35.2146 12.0609Z" fill="url(#paint5_radial_30_1667)"/>
<path d="M35.1881 16.2727L34.8829 16.7518L32.639 15.3226L32.9441 14.8434L35.1881 16.2727Z" fill="url(#paint6_radial_30_1667)"/>
<path d="M31.6213 16.5232C32.8762 16.5232 33.8935 15.5059 33.8935 14.251C33.8935 12.9961 32.8762 11.9788 31.6213 11.9788C30.3664 11.9788 29.3491 12.9961 29.3491 14.251C29.3491 15.5059 30.3664 16.5232 31.6213 16.5232Z" fill="url(#paint7_radial_30_1667)"/>
<path d="M37.1124 13.6831C38.3673 13.6831 39.3846 12.6658 39.3846 11.4109C39.3846 10.156 38.3673 9.13867 37.1124 9.13867C35.8576 9.13867 34.8403 10.156 34.8403 11.4109C34.8403 12.6658 35.8576 13.6831 37.1124 13.6831Z" fill="url(#paint8_radial_30_1667)"/>
<path d="M26.7929 13.8723C27.891 13.8723 28.7811 12.9822 28.7811 11.8842C28.7811 10.7861 27.891 9.896 26.7929 9.896C25.6949 9.896 24.8048 10.7861 24.8048 11.8842C24.8048 12.9822 25.6949 13.8723 26.7929 13.8723Z" fill="url(#paint9_radial_30_1667)"/>
<path d="M32.4733 11.6002C33.2577 11.6002 33.8935 10.9644 33.8935 10.1801C33.8935 9.39576 33.2577 8.75995 32.4733 8.75995C31.689 8.75995 31.0532 9.39576 31.0532 10.1801C31.0532 10.9644 31.689 11.6002 32.4733 11.6002Z" fill="url(#paint10_radial_30_1667)"/>
<path d="M27.7396 18.2273C28.5239 18.2273 29.1597 17.5915 29.1597 16.8071C29.1597 16.0228 28.5239 15.387 27.7396 15.387C26.9553 15.387 26.3195 16.0228 26.3195 16.8071C26.3195 17.5915 26.9553 18.2273 27.7396 18.2273Z" fill="url(#paint11_radial_30_1667)"/>
<path d="M31.1479 20.8782C32.1414 20.8782 32.9467 20.0729 32.9467 19.0794C32.9467 18.0859 32.1414 17.2806 31.1479 17.2806C30.1544 17.2806 29.3491 18.0859 29.3491 19.0794C29.3491 20.0729 30.1544 20.8782 31.1479 20.8782Z" fill="url(#paint12_radial_30_1667)"/>
<path d="M35.6923 18.038C36.4766 18.038 37.1124 17.4022 37.1124 16.6179C37.1124 15.8336 36.4766 15.1978 35.6923 15.1978C34.908 15.1978 34.2722 15.8336 34.2722 16.6179C34.2722 17.4022 34.908 18.038 35.6923 18.038Z" fill="url(#paint13_radial_30_1667)"/>
<defs>
<filter id="filter0_d_30_1667" x="9.08323" y="24.6641" width="16.587" height="28.1218" filterUnits="userSpaceOnUse" color-interpolation-filters="sRGB">
<feFlood flood-opacity="0" result="BackgroundImageFix"/>
<feColorMatrix in="SourceAlpha" type="matrix" values="0 0 0 0 0 0 0 0 0 0 0 0 0 0 0 0 0 0 127 0" result="hardAlpha"/>
<feOffset dy="0.00421407"/>
<feGaussianBlur stdDeviation="0.00273915"/>
<feColorMatrix type="matrix" values="0 0 0 0 0 0 0 0 0 0 0 0 0 0 0 0 0 0 0.2 0"/>
<feBlend mode="normal" in2="BackgroundImageFix" result="effect1_dropShadow_30_1667"/>
<feBlend mode="normal" in="SourceGraphic" in2="effect1_dropShadow_30_1667" result="shape"/>
</filter>
<filter id="filter1_d_30_1667" x="40.5853" y="24.528" width="13.0122" height="19.0744" filterUnits="userSpaceOnUse" color-interpolation-filters="sRGB">
<feFlood flood-opacity="0" result="BackgroundImageFix"/>
<feColorMatrix in="SourceAlpha" type="matrix" values="0 0 0 0 0 0 0 0 0 0 0 0 0 0 0 0 0 0 127 0" result="hardAlpha"/>
<feOffset dy="0.00421407"/>
<feGaussianBlur stdDeviation="0.00273915"/>
<feColorMatrix type="matrix" values="0 0 0 0 0 0 0 0 0 0 0 0 0 0 0 0 0 0 0.2 0"/>
<feBlend mode="normal" in2="BackgroundImageFix" result="effect1_dropShadow_30_1667"/>
<feBlend mode="normal" in="SourceGraphic" in2="effect1_dropShadow_30_1667" result="shape"/>
</filter>
<filter id="filter2_d_30_1667" x="25.9579" y="24.8047" width="13.5105" height="18.8299" filterUnits="userSpaceOnUse" color-interpolation-filters="sRGB">
<feFlood flood-opacity="0" result="BackgroundImageFix"/>
<feColorMatrix in="SourceAlpha" type="matrix" values="0 0 0 0 0 0 0 0 0 0 0 0 0 0 0 0 0 0 127 0" result="hardAlpha"/>
<feOffset dy="0.00421407"/>
<feGaussianBlur stdDeviation="0.00273915"/>
<feColorMatrix type="matrix" values="0 0 0 0 0 0 0 0 0 0 0 0 0 0 0 0 0 0 0.2 0"/>
<feBlend mode="normal" in2="BackgroundImageFix" result="effect1_dropShadow_30_1667"/>
<feBlend mode="normal" in="SourceGraphic" in2="effect1_dropShadow_30_1667" result="shape"/>
</filter>
<radialGradient id="paint0_radial_30_1667" cx="0" cy="0" r="1" gradientUnits="userSpaceOnUse" gradientTransform="translate(32 32.5504) scale(31.4496)">
<stop stop-color="#1CAFCE"/>
<stop offset="1" stop-color="#353B58"/>
</radialGradient>
<radialGradient id="paint1_radial_30_1667" cx="0" cy="0" r="1" gradientUnits="userSpaceOnUse" gradientTransform="translate(28.2333 8.27699) rotate(-166.46) scale(0.735294 0.954454)">
<stop stop-color="#F7E840"/>
<stop offset="1" stop-color="#F4A031"/>
</radialGradient>
<radialGradient id="paint2_radial_30_1667" cx="0" cy="0" r="1" gradientUnits="userSpaceOnUse" gradientTransform="translate(27.3804 8.57169) rotate(-166.46) scale(1.24789 1.21308)">
<stop stop-color="#F7E840"/>
<stop offset="1" stop-color="#F4A031"/>
</radialGradient>
<radialGradient id="paint3_radial_30_1667" cx="0" cy="0" r="1" gradientUnits="userSpaceOnUse" gradientTransform="translate(30.1049 15.2745) rotate(-31.8754) scale(1.53001 1.34181)">
<stop stop-color="#F7E840"/>
<stop offset="1" stop-color="#F4A031"/>
</radialGradient>
<radialGradient id="paint4_radial_30_1667" cx="0" cy="0" r="1" gradientUnits="userSpaceOnUse" gradientTransform="translate(32.3821 10.4441) rotate(-18.6954) scale(0.947509 1.28691)">
<stop stop-color="#F7E840"/>
<stop offset="1" stop-color="#F4A031"/>
</radialGradient>
<radialGradient id="paint5_radial_30_1667" cx="0" cy="0" r="1" gradientUnits="userSpaceOnUse" gradientTransform="translate(23.3459 7.6996) rotate(-166.46) scale(1.6191 1.58063)">
<stop stop-color="#F7E840"/>
<stop offset="1" stop-color="#F4A031"/>
</radialGradient>
<radialGradient id="paint6_radial_30_1667" cx="0" cy="0" r="1" gradientUnits="userSpaceOnUse" gradientTransform="translate(24.0492 4.91168) rotate(-166.46) scale(1.78685 1.7438)">
<stop stop-color="#F7E840"/>
<stop offset="1" stop-color="#F4A031"/>
</radialGradient>
<radialGradient id="paint7_radial_30_1667" cx="0" cy="0" r="1" gradientUnits="userSpaceOnUse" gradientTransform="translate(32.6201 15.2352) scale(4.20342)">
<stop stop-color="#F7E840"/>
<stop offset="1" stop-color="#F4A031"/>
</radialGradient>
<radialGradient id="paint8_radial_30_1667" cx="0" cy="0" r="1" gradientUnits="userSpaceOnUse" gradientTransform="translate(38.1113 12.395) scale(4.20342)">
<stop stop-color="#F7E840"/>
<stop offset="1" stop-color="#F4A031"/>
</radialGradient>
<radialGradient id="paint9_radial_30_1667" cx="0" cy="0" r="1" gradientUnits="userSpaceOnUse" gradientTransform="translate(27.6669 12.7453) scale(3.67799)">
<stop stop-color="#F7E840"/>
<stop offset="1" stop-color="#F4A031"/>
</radialGradient>
<radialGradient id="paint10_radial_30_1667" cx="0" cy="0" r="1" gradientUnits="userSpaceOnUse" gradientTransform="translate(33.0976 10.7952) scale(2.62713)">
<stop stop-color="#F7E840"/>
<stop offset="1" stop-color="#F4A031"/>
</radialGradient>
<radialGradient id="paint11_radial_30_1667" cx="0" cy="0" r="1" gradientUnits="userSpaceOnUse" gradientTransform="translate(28.3639 17.4222) scale(2.62713)">
<stop stop-color="#F7E840"/>
<stop offset="1" stop-color="#F4A031"/>
</radialGradient>
<radialGradient id="paint12_radial_30_1667" cx="0" cy="0" r="1" gradientUnits="userSpaceOnUse" gradientTransform="translate(31.9386 19.8585) scale(3.3277)">
<stop stop-color="#F7E840"/>
<stop offset="1" stop-color="#F4A031"/>
</radialGradient>
<radialGradient id="paint13_radial_30_1667" cx="0" cy="0" r="1" gradientUnits="userSpaceOnUse" gradientTransform="translate(36.3166 17.233) scale(2.62713)">
<stop stop-color="#F7E840"/>
<stop offset="1" stop-color="#F4A031"/>
</radialGradient>
</defs>
</svg>
