<svg width="86" height="64" viewBox="0 0 86 64" fill="none" xmlns="http://www.w3.org/2000/svg">
<rect width="86" height="64" rx="22" fill="#4C94CE"/>
<path d="M11 19.25C18.5764 14.8304 26.1529 10.4196 33.7293 6C41.297 10.5774 48.8734 15.1373 56.4586 19.6972C56.4499 22.7138 56.4586 25.7303 56.4586 28.7469C55.7922 28.7469 55.1345 28.7469 54.4681 28.7469C54.4681 26.1688 54.4681 23.5994 54.4681 21.0213C47.5581 16.821 40.6393 12.6206 33.7293 8.42902C26.8106 12.4014 19.9006 16.3825 12.9818 20.3549C12.9993 28.3786 12.973 36.4022 12.9906 44.4259C19.9093 48.4596 26.8193 52.5022 33.7293 56.5622C40.6305 52.5109 47.5405 48.4684 54.4593 44.4259C54.4593 43.9874 54.4593 43.5402 54.4593 43.1018H56.4499C56.4499 43.9085 56.4411 44.7153 56.4499 45.522C48.8822 50.0293 41.297 54.5015 33.7205 59C26.1529 54.5103 18.5764 50.0205 11 45.5308C11 36.7705 11 28.0103 11 19.25Z" fill="white"/>
<path d="M40.8148 29.7466C42.0687 29.2555 43.4718 29.1941 44.7959 29.4309C46.0937 29.6501 47.2863 30.3429 48.2158 31.2724C47.7335 31.8073 47.2688 32.3597 46.7952 32.9034C46.0236 32.1756 45.0853 31.5618 44.0155 31.3951C42.9018 31.1935 41.7092 31.4565 40.8148 32.1581C40.0168 32.7807 39.4643 33.6576 39.2451 34.6397C38.9645 35.8323 39.1223 37.0862 39.7011 38.1648C40.1659 39.0154 40.9112 39.6819 41.8232 40.0414C42.7352 40.3922 43.7612 40.3834 44.6819 40.094C45.5325 39.8222 46.2428 39.261 46.8829 38.6647C47.3565 39.147 47.8475 39.6205 48.3035 40.1203C47.4266 41.0411 46.3393 41.8215 45.0765 42.1197C43.9102 42.409 42.6913 42.409 41.5163 42.1284C40.0168 41.7426 38.7102 40.8131 37.8596 39.5153C36.4127 37.323 36.4303 34.2714 37.9035 32.0967C38.605 31.0268 39.6222 30.2113 40.8148 29.7466Z" fill="white"/>
<path d="M66.052 30.1412C67.0341 29.5887 68.139 29.2994 69.2614 29.3081C70.1822 29.2818 71.1029 29.4309 71.9711 29.7466C72.8392 30.0886 73.6196 30.6147 74.2685 31.2812C73.795 31.8248 73.3215 32.3685 72.848 32.9122C72.2692 32.3685 71.6115 31.895 70.8662 31.6144C69.8051 31.2198 68.5862 31.2461 67.5602 31.7372C66.6921 32.1581 65.9906 32.8771 65.596 33.7628C65.0611 34.9642 65.0172 36.3321 65.4732 37.5598C65.8415 38.5682 66.5956 39.4539 67.569 39.9187C68.4371 40.3483 69.4543 40.4097 70.3839 40.1993C71.3748 39.9888 72.2078 39.3487 72.9357 38.6822C73.4092 39.1645 73.8827 39.6381 74.3562 40.1116C73.5232 40.9973 72.506 41.7426 71.3309 42.0758C70.3839 42.3477 69.3842 42.3915 68.4108 42.3038C66.5255 42.0934 64.7629 40.9709 63.7896 39.3399C62.5356 37.2792 62.5181 34.5432 63.7282 32.465C64.2806 31.4829 65.0874 30.6849 66.052 30.1412Z" fill="white"/>
<path d="M24.7675 29.5186C26.6879 29.5186 28.5995 29.5186 30.5199 29.5186C31.7301 29.5186 33.0016 29.843 33.9136 30.6761C34.7115 31.3951 35.0886 32.5 35.0623 33.5698C35.0711 34.5607 34.7203 35.5692 34.01 36.2707C33.4663 36.7968 32.7911 37.1651 32.0545 37.3493C33.1945 38.9365 34.3257 40.5237 35.4569 42.1109C34.6151 42.1196 33.782 42.1109 32.9402 42.1109C32.8437 42.1372 32.7999 42.032 32.7473 41.9706C31.7564 40.55 30.7567 39.1294 29.757 37.7176C28.8363 37.7264 27.9068 37.7176 26.986 37.7176C26.986 39.182 26.986 40.6465 26.986 42.1109C26.2494 42.1109 25.5128 42.1109 24.7762 42.1109C24.7675 37.9193 24.7675 33.7189 24.7675 29.5186ZM26.9773 31.5354C26.9773 32.9472 26.9773 34.3503 26.9773 35.7621C28.0909 35.7621 29.1958 35.7621 30.3095 35.7621C30.9409 35.7621 31.5898 35.6043 32.0896 35.2097C33.0016 34.5081 33.063 32.9999 32.265 32.1931C31.7476 31.702 31.0022 31.5442 30.3095 31.5354C29.2046 31.5354 28.0909 31.5354 26.9773 31.5354Z" fill="white"/>
<path d="M50.1801 29.5186C52.1443 29.5186 54.0998 29.5186 56.0641 29.5186C57.169 29.5449 58.344 29.8342 59.142 30.641C59.712 31.1934 59.9926 32.0002 59.9663 32.7806C59.9751 33.5085 59.7295 34.2626 59.2122 34.7887C58.9228 35.1132 58.5545 35.3412 58.1862 35.5692C58.9228 35.8323 59.6594 36.2006 60.1329 36.8407C60.6678 37.551 60.7555 38.498 60.6064 39.3486C60.4398 40.1992 59.9137 40.9446 59.1683 41.3831C58.2213 41.953 57.0813 42.1284 55.9939 42.1196C54.056 42.1196 52.118 42.1196 50.1801 42.1196C50.1801 37.9193 50.1801 33.7189 50.1801 29.5186ZM52.3635 31.474C52.3635 32.5877 52.3635 33.7102 52.3635 34.8238C53.3807 34.8238 54.4067 34.8238 55.4239 34.8238C55.801 34.8238 56.1781 34.7712 56.5376 34.666C56.9936 34.5257 57.432 34.2275 57.625 33.7715C57.8705 33.2015 57.8003 32.4474 57.3268 32.0177C56.8796 31.5968 56.2307 31.4916 55.6432 31.4653C54.547 31.474 53.4597 31.474 52.3635 31.474ZM52.3635 36.6916C52.3548 37.8491 52.3635 38.9979 52.3635 40.1554C53.6438 40.1554 54.9241 40.1554 56.2044 40.1554C56.8007 40.1291 57.4408 40.0239 57.9231 39.6292C58.6772 39.0242 58.6509 37.6825 57.8266 37.1564C57.1164 36.6916 56.2307 36.6916 55.4239 36.6916H52.3635Z" fill="white"/>
</svg>
