<svg width="43" height="64" viewBox="0 0 43 64" fill="none" xmlns="http://www.w3.org/2000/svg">
<g clip-path="url(#clip0_30_1744)">
<path d="M42.085 0H0.435716C0.195077 0 0 0.195077 0 0.435716V42.6169C0 42.8576 0.195077 43.0524 0.435716 43.0524H42.085C42.3253 43.0524 42.5205 42.8576 42.5205 42.6169V0.435716C42.5205 0.195077 42.3253 0 42.085 0Z" fill="#662F8E"/>
<path d="M20.0379 32.007C20.0379 32.181 20.0379 32.2679 20.0379 32.3549C20.0379 34.0944 20.0379 35.9207 20.0379 37.6605C20.0379 38.0082 20.0379 38.0082 19.6872 38.0082H13.3749C13.1995 38.0082 13.0242 38.0082 12.9365 37.9214L4.69538 34.1814C4.3447 34.0074 4.3447 34.0074 4.43238 33.5725C5.04607 31.3982 5.57211 29.2238 6.09812 27.1364C6.79949 24.4402 7.50086 21.657 8.20223 18.9608C8.46523 18.004 8.72827 17.0473 8.99128 16.0906C8.99128 15.9166 9.07896 15.8297 9.25428 15.7427L17.7584 8.08891L21.2652 4.87084L21.3529 4.78387L22.2296 5.56663L27.4899 10.3503L33.5392 15.7427C33.6269 15.8297 33.7145 16.0036 33.8022 16.0906C34.5913 19.1347 35.3803 22.0919 36.1692 25.136L38.2734 33.2247C38.2734 33.3116 38.2734 33.3986 38.3612 33.4856C38.4487 33.9204 38.4487 33.9204 38.0981 34.0944C35.468 35.312 32.9255 36.5298 30.2954 37.7472C29.857 37.9214 29.4187 38.0082 28.9803 38.0082C27.0515 38.0082 25.0351 38.0082 23.1063 38.0082C22.668 38.0082 22.668 38.0082 22.668 37.6605C22.668 35.9207 22.668 34.0944 22.668 32.3549V32.007L23.6324 32.4419C24.8598 32.9637 26.1748 33.3116 27.5776 33.4856C28.7173 33.6595 29.9447 33.3986 30.9091 32.7898C31.8734 32.094 32.4872 30.9633 32.6625 29.8326C32.9255 28.441 32.9255 27.0494 32.6625 25.7448C32.4872 24.7881 32.3118 23.8314 32.0488 22.8746C31.5228 21.1351 30.6461 19.4826 29.594 18.004C28.805 16.8734 27.9282 15.7427 27.0515 14.699C26.1748 13.6553 25.2104 12.6986 24.1584 11.8288C23.457 11.22 22.5803 10.6981 21.879 10.0893C21.6159 9.91539 21.2652 9.91539 21.0022 10.0893C19.8625 10.7851 18.8104 11.6549 17.8461 12.6116C16.0926 14.2641 14.5145 16.1776 13.1995 18.178C12.0598 19.7436 11.2707 21.57 10.7447 23.3965C10.394 24.6141 10.2187 25.9188 10.131 27.2234C10.0433 28.1801 10.131 29.1368 10.3063 30.0936C10.4817 31.0503 10.9201 32.007 11.7091 32.7028C12.4981 33.3116 13.4625 33.7465 14.5145 33.7465C16.1803 33.7465 17.8461 33.3986 19.3365 32.7028L20.0379 32.007Z" fill="#F5A71C"/>
<path d="M16.4636 62.6716C17.772 63.6523 19.2983 63.8706 20.8247 63.9794C22.024 63.9794 23.2233 63.7614 24.4226 63.4343C25.0768 63.2164 25.0768 63.2164 24.9677 62.4533C24.8587 62.0174 24.8587 61.4727 24.7497 60.9276C23.2233 61.4727 21.697 61.6907 20.0615 61.4727C18.7532 61.2544 17.881 60.7097 17.4449 59.4016C16.7907 57.7668 16.8998 56.0228 17.3358 54.2791C17.6629 53.189 18.4261 52.5351 19.5164 52.208C20.4976 51.99 21.4789 51.99 22.4601 52.0992C23.2233 52.208 23.8775 52.3172 24.6407 52.5351C24.7497 51.8812 24.8587 51.227 24.9677 50.4644C24.9677 50.3552 24.8587 50.246 24.7497 50.246C23.7685 49.9193 22.6782 49.7013 21.6969 49.5922C20.7157 49.4834 19.7345 49.5922 18.7532 49.8101C16.7907 50.246 15.2643 51.445 14.5011 53.4069C13.847 55.1509 13.847 57.0037 14.1741 58.7477C14.6102 60.4917 15.2643 61.7995 16.4636 62.6716Z" fill="#662F8E"/>
<path d="M8.28552 61.472C7.08623 61.9082 5.77789 61.7991 4.5786 61.472C3.70639 61.254 2.94319 60.9273 2.07098 60.7093C1.96195 61.472 1.85292 62.235 1.7439 62.8889C1.85292 62.8889 1.85292 62.998 1.85292 62.998C1.96195 62.998 2.07098 63.1072 2.18 63.1072C3.8154 63.761 5.45082 64.0878 7.19524 63.979C8.06746 63.8699 8.93967 63.761 9.70287 63.4339C11.5563 62.5621 12.3195 61.254 12.1014 59.2921C11.8834 57.9843 11.2292 57.0034 10.0299 56.5675C9.04872 56.1315 7.95844 55.9136 6.97718 55.5865C6.32303 55.3685 5.66888 55.1506 5.01469 54.8234C4.5786 54.6055 4.46955 54.1696 4.5786 53.7337C4.68762 53.1886 5.12374 52.8615 5.55983 52.6435C6.75915 52.2076 8.06746 52.3168 9.37579 52.5347C10.0299 52.6435 10.6841 52.8615 11.3383 52.9706C11.4473 52.4256 11.4473 51.7717 11.5563 51.2267C11.6654 50.6816 11.6654 50.7907 11.2292 50.6816C10.248 50.4636 9.37579 50.2457 8.39453 50.1369C7.08623 49.9189 5.8869 50.1369 4.68762 50.4636C2.39806 51.2266 1.52584 53.1886 2.07098 55.1506C2.28903 56.2403 3.16125 57.0034 4.14248 57.3305C5.01469 57.6572 5.99595 57.8752 6.97718 58.2023C7.74038 58.4202 8.61259 58.6382 9.26674 59.1833C9.81188 59.6192 9.92093 60.3822 9.37579 60.9273C8.93967 61.0361 8.61259 61.254 8.28552 61.472Z" fill="#662F8E"/>
<path d="M37.2865 56.677C37.1777 56.677 37.0685 56.5678 36.8505 56.5678V56.459C36.9597 56.459 36.9597 56.3499 37.0685 56.3499C37.8319 56.1319 38.377 55.5868 38.5949 54.8238C38.8129 54.2791 38.922 53.6249 38.8129 52.971C38.7041 51.99 38.2678 51.227 37.3956 50.7911C36.4143 50.1372 35.2151 50.0281 34.1248 50.0281C32.1623 50.0281 30.1999 50.0281 28.1283 50.0281C28.0193 50.0281 27.9103 50.0281 27.8013 50.0281C27.8013 54.6059 27.8013 59.1836 27.8013 63.6523C27.9103 63.6523 28.0193 63.6523 28.1283 63.6523C30.3089 63.6523 32.4894 63.6523 34.67 63.6523C35.4332 63.6523 36.1963 63.5435 36.8505 63.3255C39.2491 62.6716 39.9033 60.8185 39.4671 58.8565C39.14 57.7667 38.377 57.1129 37.2865 56.677ZM30.4179 52.3171C30.527 52.3171 30.636 52.3171 30.745 52.3171C31.8353 52.3171 33.0346 52.3171 34.1248 52.3171C34.4519 52.3171 34.888 52.4259 35.2151 52.5351C35.8692 52.7531 36.1963 53.2981 36.1963 53.8428C36.1963 54.0611 36.1963 54.3879 36.1963 54.6059C36.0872 55.2601 35.5422 55.696 34.67 55.8048C33.2526 55.8048 31.8353 55.8048 30.4179 55.8048C30.4179 54.6059 30.4179 53.5161 30.4179 52.3171ZM36.7414 60.1646C36.5234 61.0364 36.0872 61.4727 35.1061 61.4727C33.5797 61.4727 32.0533 61.4727 30.527 61.4727C30.527 61.4727 30.527 61.4727 30.4179 61.4727C30.4179 60.2738 30.4179 58.9657 30.4179 57.7667C30.527 57.7667 30.636 57.7667 30.745 57.7667C31.7262 57.7667 32.7075 57.7667 33.6887 57.7667C34.2339 57.7667 34.888 57.7667 35.4332 57.8759C36.3055 57.9847 36.7414 58.6386 36.7414 59.5107C36.7414 59.7287 36.7414 59.9467 36.7414 60.1646Z" fill="#662F8E"/>
</g>
<defs>
<clipPath id="clip0_30_1744">
<rect width="42.6667" height="64" fill="white"/>
</clipPath>
</defs>
</svg>
