<svg width="139" height="64" viewBox="0 0 139 64" fill="none" xmlns="http://www.w3.org/2000/svg">
<path d="M42.085 0H0.435716C0.195077 0 0 0.195077 0 0.435716V42.6169C0 42.8576 0.195077 43.0524 0.435716 43.0524H42.085C42.3253 43.0524 42.5205 42.8576 42.5205 42.6169V0.435716C42.5205 0.195077 42.3253 0 42.085 0Z" fill="#662F8E"/>
<path d="M20.0379 32.007C20.0379 32.181 20.0379 32.2679 20.0379 32.3549C20.0379 34.0944 20.0379 35.9207 20.0379 37.6605C20.0379 38.0082 20.0379 38.0082 19.6872 38.0082H13.3749C13.1995 38.0082 13.0242 38.0082 12.9365 37.9214L4.69538 34.1814C4.3447 34.0074 4.3447 34.0074 4.43238 33.5725C5.04607 31.3982 5.57211 29.2238 6.09812 27.1364C6.79949 24.4402 7.50086 21.657 8.20223 18.9608C8.46523 18.004 8.72827 17.0473 8.99128 16.0906C8.99128 15.9166 9.07896 15.8297 9.25428 15.7427L17.7584 8.08891L21.2652 4.87084L21.3529 4.78387L22.2296 5.56663L27.4899 10.3503L33.5392 15.7427C33.6269 15.8297 33.7145 16.0036 33.8022 16.0906C34.5913 19.1347 35.3803 22.0919 36.1692 25.136L38.2734 33.2247C38.2734 33.3116 38.2734 33.3986 38.3612 33.4856C38.4487 33.9204 38.4487 33.9204 38.0981 34.0944C35.468 35.312 32.9255 36.5298 30.2954 37.7472C29.857 37.9214 29.4187 38.0082 28.9803 38.0082C27.0515 38.0082 25.0351 38.0082 23.1063 38.0082C22.668 38.0082 22.668 38.0082 22.668 37.6605C22.668 35.9207 22.668 34.0944 22.668 32.3549V32.007L23.6324 32.4419C24.8598 32.9637 26.1748 33.3116 27.5776 33.4856C28.7173 33.6595 29.9447 33.3986 30.9091 32.7898C31.8734 32.094 32.4872 30.9633 32.6625 29.8326C32.9255 28.441 32.9255 27.0494 32.6625 25.7448C32.4872 24.7881 32.3118 23.8314 32.0488 22.8746C31.5228 21.1351 30.6461 19.4826 29.594 18.004C28.805 16.8734 27.9282 15.7427 27.0515 14.699C26.1748 13.6553 25.2104 12.6986 24.1584 11.8288C23.457 11.22 22.5803 10.6981 21.879 10.0893C21.6159 9.91539 21.2652 9.91539 21.0022 10.0893C19.8625 10.7851 18.8104 11.6549 17.8461 12.6116C16.0926 14.2641 14.5145 16.1776 13.1995 18.178C12.0598 19.7436 11.2707 21.57 10.7447 23.3965C10.394 24.6141 10.2187 25.9188 10.131 27.2234C10.0433 28.1801 10.131 29.1368 10.3063 30.0936C10.4817 31.0503 10.9201 32.007 11.7091 32.7028C12.4981 33.3116 13.4625 33.7465 14.5145 33.7465C16.1803 33.7465 17.8461 33.3986 19.3365 32.7028L20.0379 32.007Z" fill="#F5A71C"/>
<path d="M16.4636 62.6716C17.772 63.6523 19.2983 63.8706 20.8247 63.9794C22.024 63.9794 23.2233 63.7614 24.4226 63.4343C25.0768 63.2164 25.0768 63.2164 24.9677 62.4533C24.8587 62.0174 24.8587 61.4727 24.7497 60.9276C23.2233 61.4727 21.697 61.6907 20.0615 61.4727C18.7532 61.2544 17.881 60.7097 17.4449 59.4016C16.7907 57.7668 16.8998 56.0228 17.3358 54.2791C17.6629 53.189 18.4261 52.5351 19.5164 52.208C20.4976 51.99 21.4789 51.99 22.4601 52.0992C23.2233 52.208 23.8775 52.3172 24.6407 52.5351C24.7497 51.8812 24.8587 51.227 24.9677 50.4644C24.9677 50.3552 24.8587 50.246 24.7497 50.246C23.7685 49.9193 22.6782 49.7013 21.6969 49.5922C20.7157 49.4834 19.7345 49.5922 18.7532 49.8101C16.7907 50.246 15.2643 51.445 14.5011 53.4069C13.847 55.1509 13.847 57.0037 14.1741 58.7477C14.6102 60.4917 15.2643 61.7995 16.4636 62.6716Z" fill="#662F8E"/>
<path d="M8.28552 61.472C7.08623 61.9082 5.77789 61.7991 4.5786 61.472C3.70639 61.254 2.94319 60.9273 2.07098 60.7093C1.96195 61.472 1.85292 62.235 1.7439 62.8889C1.85292 62.8889 1.85292 62.998 1.85292 62.998C1.96195 62.998 2.07098 63.1072 2.18 63.1072C3.8154 63.761 5.45082 64.0878 7.19524 63.979C8.06746 63.8699 8.93967 63.761 9.70287 63.4339C11.5563 62.5621 12.3195 61.254 12.1014 59.2921C11.8834 57.9843 11.2292 57.0034 10.0299 56.5675C9.04872 56.1315 7.95844 55.9136 6.97718 55.5865C6.32303 55.3685 5.66888 55.1506 5.01469 54.8234C4.5786 54.6055 4.46955 54.1696 4.5786 53.7337C4.68762 53.1886 5.12374 52.8615 5.55983 52.6435C6.75915 52.2076 8.06746 52.3168 9.37579 52.5347C10.0299 52.6435 10.6841 52.8615 11.3383 52.9706C11.4473 52.4256 11.4473 51.7717 11.5563 51.2267C11.6654 50.6816 11.6654 50.7907 11.2292 50.6816C10.248 50.4636 9.37579 50.2457 8.39453 50.1369C7.08623 49.9189 5.8869 50.1369 4.68762 50.4636C2.39806 51.2266 1.52584 53.1886 2.07098 55.1506C2.28903 56.2403 3.16125 57.0034 4.14248 57.3305C5.01469 57.6572 5.99595 57.8752 6.97718 58.2023C7.74038 58.4202 8.61259 58.6382 9.26674 59.1833C9.81188 59.6192 9.92093 60.3822 9.37579 60.9273C8.93967 61.0361 8.61259 61.254 8.28552 61.472Z" fill="#662F8E"/>
<path d="M37.2865 56.677C37.1777 56.677 37.0685 56.5678 36.8505 56.5678V56.459C36.9597 56.459 36.9597 56.3499 37.0685 56.3499C37.8319 56.1319 38.377 55.5868 38.5949 54.8238C38.8129 54.2791 38.922 53.6249 38.8129 52.971C38.7041 51.99 38.2678 51.227 37.3956 50.7911C36.4143 50.1372 35.2151 50.0281 34.1248 50.0281C32.1623 50.0281 30.1999 50.0281 28.1283 50.0281C28.0193 50.0281 27.9103 50.0281 27.8013 50.0281C27.8013 54.6059 27.8013 59.1836 27.8013 63.6523C27.9103 63.6523 28.0193 63.6523 28.1283 63.6523C30.3089 63.6523 32.4894 63.6523 34.67 63.6523C35.4332 63.6523 36.1963 63.5435 36.8505 63.3255C39.2491 62.6716 39.9033 60.8185 39.4671 58.8565C39.14 57.7667 38.377 57.1129 37.2865 56.677ZM30.4179 52.3171C30.527 52.3171 30.636 52.3171 30.745 52.3171C31.8353 52.3171 33.0346 52.3171 34.1248 52.3171C34.4519 52.3171 34.888 52.4259 35.2151 52.5351C35.8692 52.7531 36.1963 53.2981 36.1963 53.8428C36.1963 54.0611 36.1963 54.3879 36.1963 54.6059C36.0872 55.2601 35.5422 55.696 34.67 55.8048C33.2526 55.8048 31.8353 55.8048 30.4179 55.8048C30.4179 54.6059 30.4179 53.5161 30.4179 52.3171ZM36.7414 60.1646C36.5234 61.0364 36.0872 61.4727 35.1061 61.4727C33.5797 61.4727 32.0533 61.4727 30.527 61.4727C30.527 61.4727 30.527 61.4727 30.4179 61.4727C30.4179 60.2738 30.4179 58.9657 30.4179 57.7667C30.527 57.7667 30.636 57.7667 30.745 57.7667C31.7262 57.7667 32.7075 57.7667 33.6887 57.7667C34.2339 57.7667 34.888 57.7667 35.4332 57.8759C36.3055 57.9847 36.7414 58.6386 36.7414 59.5107C36.7414 59.7287 36.7414 59.9467 36.7414 60.1646Z" fill="#662F8E"/>
<path d="M56.7432 42.6667V17.4579H74.6987V21.6179H61.3298V27.4846H73.0987V31.609H61.3298V38.5067H74.6987V42.6667H56.7432Z" fill="#662F8E"/>
<path d="M95.7095 42.4533C95.3302 42.6194 94.9984 42.7378 94.714 42.8089C94.453 42.9038 94.0502 42.9511 93.5051 42.9511C92.533 42.9511 91.7863 42.6905 91.2651 42.1689C90.7435 41.6476 90.4473 41.0432 90.3762 40.3555C89.9495 41.1143 89.2384 41.766 88.2429 42.3111C87.2473 42.8565 86.0857 43.1289 84.7584 43.1289C83.6441 43.1289 82.6724 42.9749 81.8429 42.6666C81.013 42.3349 80.314 41.9082 79.7451 41.3866C79.1997 40.8416 78.7851 40.2254 78.5006 39.5378C78.2162 38.8266 78.074 38.0921 78.074 37.3333C78.074 36.4565 78.2279 35.6743 78.5362 34.9867C78.8679 34.2994 79.3184 33.7067 79.8873 33.209C80.4562 32.7112 81.1197 32.332 81.8784 32.0712C82.6368 31.7867 83.4546 31.609 84.3318 31.5379L89.7718 31.1467V30.009C89.7718 29.132 89.5584 28.4327 89.1318 27.9112C88.7286 27.366 87.899 27.0934 86.6429 27.0934C85.5997 27.0934 84.7819 27.3186 84.1895 27.769C83.6206 28.2194 83.3124 28.8712 83.2651 29.7245H78.9629C79.034 28.6816 79.2708 27.7808 79.674 27.0223C80.1006 26.2638 80.6574 25.6475 81.3451 25.1734C82.0324 24.6756 82.8263 24.3082 83.7273 24.0712C84.6279 23.8342 85.5997 23.7156 86.6429 23.7156C88.2308 23.7156 89.6413 24.0001 90.874 24.569C92.1302 25.1142 93.0308 26.086 93.5762 27.4845C93.813 28.0771 93.9552 28.6934 94.0029 29.3334C94.074 29.9734 94.1095 30.6016 94.1095 31.2179V38.08C94.1095 38.5066 94.1806 38.8149 94.3229 39.0044C94.4886 39.1705 94.7613 39.2533 95.1406 39.2533C95.3302 39.2533 95.4606 39.2416 95.5318 39.2178C95.6029 39.2178 95.6619 39.206 95.7095 39.1822V42.4533ZM89.7718 34.4534L85.0784 34.809C84.3908 34.8564 83.7746 35.0816 83.2295 35.4845C82.6841 35.8876 82.4118 36.4682 82.4118 37.2266C82.4118 37.9378 82.6724 38.5066 83.194 38.9333C83.739 39.3365 84.3552 39.5378 85.0429 39.5378C86.4413 39.5378 87.579 39.1822 88.4562 38.4711C89.333 37.7365 89.7718 36.6816 89.7718 35.3067V34.4534Z" fill="#662F8E"/>
<path d="M114.644 36.9422C114.644 37.8432 114.49 38.6254 114.181 39.2889C113.897 39.9527 113.518 40.5216 113.044 40.9955C112.285 41.7543 111.361 42.2994 110.27 42.6311C109.18 42.9632 107.995 43.1289 106.715 43.1289C105.53 43.1289 104.427 42.9632 103.408 42.6311C102.389 42.2755 101.5 41.7305 100.741 40.9955C100.196 40.4743 99.734 39.846 99.3547 39.1111C98.9753 38.3765 98.7858 37.5705 98.7858 36.6933H102.946C102.946 37.0965 103.041 37.4994 103.23 37.9022C103.42 38.3054 103.657 38.6254 103.941 38.8622C104.297 39.1466 104.688 39.36 105.115 39.5022C105.565 39.621 106.11 39.68 106.75 39.68C107.13 39.68 107.532 39.6565 107.959 39.6089C108.41 39.5378 108.824 39.4194 109.204 39.2533C109.583 39.0876 109.891 38.8505 110.128 38.5422C110.389 38.2343 110.519 37.8311 110.519 37.3333C110.519 36.7882 110.353 36.3498 110.021 36.0178C109.69 35.686 109.239 35.4727 108.67 35.3779C107.841 35.2594 106.987 35.1645 106.11 35.0934C105.233 34.9986 104.38 34.8564 103.55 34.6667C102.91 34.5245 102.33 34.2994 101.808 33.9912C101.31 33.6831 100.872 33.3156 100.492 32.889C100.113 32.4386 99.8169 31.9527 99.6035 31.4312C99.414 30.886 99.3191 30.3171 99.3191 29.7245C99.3191 28.7764 99.4969 27.9705 99.8524 27.3067C100.208 26.6194 100.658 26.0386 101.204 25.5645C101.891 24.972 102.709 24.5216 103.657 24.2134C104.605 23.8816 105.66 23.7156 106.821 23.7156C107.935 23.7156 109.002 23.8934 110.021 24.249C111.064 24.6045 111.93 25.1497 112.617 25.8845C113.115 26.4297 113.506 27.0342 113.79 27.6979C114.098 28.3379 114.252 29.0016 114.252 29.689H110.021C110.021 29.3334 109.95 29.0134 109.808 28.729C109.666 28.4445 109.488 28.1838 109.275 27.9467C109.014 27.686 108.658 27.4845 108.208 27.3423C107.781 27.1764 107.331 27.0934 106.857 27.0934C106.525 27.0934 106.205 27.1053 105.897 27.129C105.589 27.1527 105.269 27.2356 104.937 27.3779C104.534 27.5438 104.19 27.7927 103.906 28.1245C103.645 28.4564 103.515 28.8594 103.515 29.3334C103.515 29.9971 103.74 30.4594 104.19 30.7201C104.664 30.9571 105.15 31.1112 105.648 31.1823C106.075 31.2297 106.43 31.2771 106.715 31.3245C106.999 31.3482 107.284 31.3838 107.568 31.4312C107.852 31.4549 108.149 31.4905 108.457 31.5379C108.765 31.5853 109.144 31.6445 109.595 31.7156C111.064 31.9527 112.273 32.5216 113.221 33.4223C114.17 34.2994 114.644 35.4727 114.644 36.9422Z" fill="#662F8E"/>
<path d="M127.114 45.8311C126.876 46.4476 126.592 47.0282 126.26 47.5733C125.952 48.1422 125.573 48.64 125.122 49.0666C124.672 49.4933 124.139 49.8254 123.522 50.0622C122.93 50.3232 122.231 50.4533 121.425 50.4533C120.69 50.4533 120.05 50.406 119.505 50.3111C118.983 50.2165 118.485 50.1098 118.011 49.9911V46.2933C118.296 46.341 118.533 46.3882 118.722 46.4355C118.936 46.4832 119.125 46.5187 119.291 46.5422C119.481 46.566 119.659 46.5778 119.825 46.5778C120.014 46.6016 120.24 46.6133 120.5 46.6133C120.903 46.6133 121.294 46.5187 121.674 46.3289C122.076 46.1393 122.396 45.7721 122.634 45.2266L123.7 42.6311L116.411 24.1779H121.282L126.118 37.5466L130.74 24.1779H135.256L127.114 45.8311Z" fill="#662F8E"/>
</svg>
