<svg width="64" height="64" viewBox="0 0 64 64" fill="none" xmlns="http://www.w3.org/2000/svg">
<rect width="64" height="64" rx="11" fill="#ED4C2F"/>
<path fill-rule="evenodd" clip-rule="evenodd" d="M16.7844 19.9712H48.6765C50.7976 19.9712 52.5325 21.7065 52.5325 23.8272V46.1441C52.5325 48.2651 50.7976 50 48.6765 50H15.8559C13.7349 50 12 48.2651 12 46.1441V18.5769C12 17.5738 12.8283 16.8806 13.8233 16.7536L43.2316 13C44.2347 13.0004 45.0546 13.8202 45.0546 14.8233V17.9432H14.9465C14.9465 19.253 15.3371 19.9712 16.7844 19.9712V19.9712ZM34.6703 44.4259C31.988 44.9405 28.5395 44.0468 26.6629 42.0302C25.8151 41.1208 27.1813 39.7466 28.0329 40.664C29.2947 42.0226 31.5431 42.6572 33.3776 42.6144C35.7155 42.5643 37.7978 40.4356 36.4703 38.0594C34.6317 34.7696 30.0996 35.6908 27.7697 33.1053C25.8848 31.0191 26.7788 27.7374 28.9924 26.282C31.299 24.7648 35.282 24.8229 37.1781 26.9982C37.9953 27.9306 36.6287 29.3044 35.8084 28.3641C34.2755 26.6073 30.6567 26.8468 29.2751 28.6544C27.3091 31.2357 30.2504 32.6256 32.3056 33.2484C35.1309 34.1039 38.2661 35.6675 38.7803 38.9068C39.1909 41.5153 37.1705 43.9419 34.6703 44.4259V44.4259Z" fill="white"/>
<path fill-rule="evenodd" clip-rule="evenodd" d="M34.6704 44.4257C31.9883 44.9407 28.5398 44.0467 26.6628 42.0301C25.815 41.1207 27.1813 39.7466 28.0328 40.6639C29.2944 42.0224 31.5431 42.6571 33.3776 42.6145C35.7155 42.5644 37.7976 40.4356 36.47 38.0594C34.6317 34.7696 30.0996 35.6906 27.7695 33.1053C25.8847 31.0192 26.7787 27.7372 28.9925 26.2819C31.2993 24.7647 35.2819 24.8229 37.1783 26.9981C37.995 27.9306 36.6288 29.3046 35.8084 28.364C34.2755 26.607 30.6566 26.8467 29.2751 28.6542C27.3092 31.2359 30.2504 32.6252 32.3056 33.2486C35.1309 34.1038 38.2659 35.6675 38.7806 38.9068C39.191 41.5154 37.1706 43.9422 34.6704 44.4257V44.4257Z" fill="#ED4C2F"/>
</svg>
