<svg width="57" height="64" viewBox="0 0 57 64" fill="none" xmlns="http://www.w3.org/2000/svg">
<path fill-rule="evenodd" clip-rule="evenodd" d="M40.6182 33.6908C37.9803 33.3419 36.8309 33.2012 36.8309 33.2012V23.6202C37.4825 23.7842 41.7735 24.849 41.7735 24.849C44.4017 25.3789 45.7392 27.3287 45.7392 29.6651C45.7392 32.002 43.7001 34.0983 40.6182 33.6908ZM51.2047 37.6519C51.2047 37.6519 54.2499 34.5637 54.2499 28.7473C54.2499 23.8924 51.0421 18.5119 45.3911 16.4867L26.8139 9.76415L26.7539 42.642C26.7539 42.642 26.7597 47.4036 21.5528 48.4101C18.0669 49.0841 14.669 45.8655 14.669 41.8649C14.6736 41.8653 14.6882 15.9535 14.674 5.33389L0 -6.10352e-05V43.2835C0 58.7442 13.7513 65.2841 22.1994 63.793C32.2831 62.0131 36.8309 54.0659 36.8309 45.4647V42.4106L43.9456 42.6587C46.2987 42.6587 48.0486 44.752 48.0486 46.9462C48.0486 48.8918 46.7165 50.9864 43.9748 51.2286L40.0653 51.5325C39.4387 54.1583 38.0804 57.7818 35.0306 61.4029L46.4859 59.3365C51.0992 58.4849 56.4637 54.3997 56.4637 47.6505C56.4637 44.7749 55.511 40.5661 51.2047 37.6519Z" fill="#FEA30B"/>
</svg>
