<svg width="82" height="65" viewBox="0 0 82 65" fill="none" xmlns="http://www.w3.org/2000/svg">
<path fill-rule="evenodd" clip-rule="evenodd" d="M28.4517 8.22424L23.7835 21.809L18.8572 8.22424H15.3736L10.3572 21.9647L5.69458 8.22424H0.00012207L8.35397 32.3755H11.9982L17.0919 18.6128L22.0361 32.3755H25.7229L34.1837 8.22424H28.4517Z" fill="#030404"/>
<path fill-rule="evenodd" clip-rule="evenodd" d="M49.5412 17.2809C49.1369 15.9342 48.3397 14.8393 47.15 13.9954C45.9597 13.1522 44.5785 12.7303 43.0069 12.7303C41.3004 12.7303 39.8033 13.2037 38.5162 14.1507C37.7077 14.7428 36.9592 15.7862 36.2705 17.2809H49.5412ZM55.6611 22.0532H36.0012C36.2851 23.7702 37.0437 25.1352 38.2765 26.1492C39.5099 27.1627 41.0826 27.6694 42.9957 27.6694C45.2822 27.6694 47.2468 26.8783 48.8912 25.2943C48.8912 25.2943 52.7319 25.2888 54.837 25.2888C54.837 26.56 54.047 27.6916 54.047 27.6916C52.7616 29.4973 51.2225 30.8329 49.4292 31.6983C47.6359 32.5643 45.5062 32.9973 43.0405 32.9973C39.2143 32.9973 36.0986 31.802 33.6923 29.4119C31.2865 27.0224 30.0834 24.0292 30.0834 20.4333C30.0834 16.7481 31.2826 13.6889 33.6811 11.2539C36.0802 8.82002 39.0872 7.60254 42.704 7.60254C46.5447 7.60254 49.6683 8.82002 52.074 11.2539C54.4804 13.6889 55.6835 16.9033 55.6835 20.899L55.6611 22.0532Z" fill="#030404"/>
<mask id="mask0_152_982" style="mask-type:alpha" maskUnits="userSpaceOnUse" x="55" y="0" width="26" height="33">
<path d="M80.3647 0.245972H55.1234V32.9971H80.3647V0.245972Z" fill="white"/>
</mask>
<g mask="url(#mask0_152_982)">
<path fill-rule="evenodd" clip-rule="evenodd" d="M67.6321 13.1964C65.7044 13.1964 64.1049 13.8479 62.8351 15.1496C61.5647 16.4525 60.9293 18.154 60.9293 20.2552C60.9293 22.4013 61.5647 24.1366 62.8351 25.4611C64.1049 26.7856 65.7044 27.4476 67.6321 27.4476C69.4998 27.4476 71.073 26.7745 72.3507 25.4278C73.6283 24.0812 74.2677 22.3642 74.2677 20.2774C74.2677 18.2061 73.6395 16.5079 72.3843 15.1829C71.129 13.859 69.5452 13.1964 67.6321 13.1964ZM61.1986 0.245972V10.8879C62.3043 9.79292 63.4997 8.97128 64.7851 8.42408C66.07 7.87632 67.4451 7.60244 68.9097 7.60244C72.0931 7.60244 74.7979 8.79387 77.0245 11.1762C79.2511 13.559 80.3647 16.6149 80.3647 20.3444C80.3647 23.9404 79.2141 26.948 76.9125 29.3675C74.6109 31.7875 71.8837 32.9972 68.7305 32.9972C67.3258 32.9972 66.018 32.7494 64.8075 32.2537C63.5971 31.7575 62.3939 30.9475 61.1986 29.8226V32.3757H55.1234V0.245972H61.1986Z" fill="#030404"/>
</g>
<path fill-rule="evenodd" clip-rule="evenodd" d="M20.6933 36.9155C18.8127 36.9155 17.2523 37.5509 16.0133 38.8216C14.7737 40.0917 14.154 41.7522 14.154 43.8024C14.154 45.8958 14.7737 47.5885 16.0133 48.8808C17.2523 50.1731 18.8127 50.819 20.6933 50.819C22.5157 50.819 24.0503 50.1626 25.2971 48.8481C26.5434 47.5347 27.1671 45.8598 27.1671 43.824C27.1671 41.8026 26.5546 40.146 25.3296 38.8537C24.1051 37.5619 22.5593 36.9155 20.6933 36.9155ZM14.4166 32.0644V34.6635C15.4954 33.5951 16.6616 32.7935 17.9158 32.2596C19.1693 31.7251 20.5108 31.4579 21.9401 31.4579C25.0452 31.4579 27.6838 32.6205 29.8567 34.9446C32.029 37.2692 33.1152 40.2508 33.1152 43.8889C33.1152 47.3972 31.9926 50.3317 29.7475 52.6924C27.5019 55.053 24.8408 56.2334 21.7649 56.2334C20.3943 56.2334 19.1184 55.9911 17.9376 55.5076C16.7568 55.0242 15.5828 54.2336 14.4166 53.1364V63.4546H8.48975V32.0644H14.4166Z" fill="#F9A81A"/>
<path fill-rule="evenodd" clip-rule="evenodd" d="M44.7589 36.9155C42.8027 36.9155 41.1774 37.5619 39.8836 38.8537C38.5897 40.146 37.943 41.8026 37.943 43.824C37.943 45.8598 38.6009 47.5347 39.9183 48.8481C41.2351 50.1626 42.8565 50.819 44.7819 50.819C46.7689 50.819 48.4171 50.1731 49.7261 48.8808C51.0351 47.5885 51.6901 45.8958 51.6901 43.8024C51.6901 41.7522 51.0351 40.0917 49.7261 38.8216C48.4171 37.5509 46.7616 36.9155 44.7589 36.9155ZM51.4119 32.0644H56.6209V55.6268H51.4119V53.1364C50.1768 54.2336 48.9378 55.0242 47.6955 55.5076C46.4525 55.9911 45.106 56.2334 43.6549 56.2334C40.3975 56.2334 37.5802 55.053 35.203 52.6924C32.8258 50.3317 31.6372 47.3972 31.6372 43.8889C31.6372 40.2508 32.7872 37.2692 35.0877 34.9446C37.3877 32.6205 40.1814 31.4579 43.4695 31.4579C44.9823 31.4579 46.4022 31.7251 47.7302 32.2596C49.0576 32.7935 50.2849 33.5951 51.4119 34.6635V32.0644Z" fill="#F9A81A"/>
<mask id="mask1_152_982" style="mask-type:alpha" maskUnits="userSpaceOnUse" x="56" y="32" width="26" height="33">
<path d="M56.6211 64.2461H81.8422V32.0643H56.6211V64.2461Z" fill="white"/>
</mask>
<g mask="url(#mask1_152_982)">
<path fill-rule="evenodd" clip-rule="evenodd" d="M56.6211 32.0643H62.7226L68.903 46.8488L75.7234 32.0643H81.8422L66.9401 64.2462H60.7737L65.6664 53.8687L56.6211 32.0643Z" fill="#F9A81A"/>
</g>
</svg>
