<svg width="45" height="22" viewBox="0 0 45 22" fill="none" xmlns="http://www.w3.org/2000/svg">
<path d="M28.5967 14.8583H27.1907L25.5777 9.52861L23.9646 14.8583H22.5586L21 7.13079H22.3406L23.4196 12.5041L25.0109 7.25068H26.188L27.7466 12.5041L28.8474 7.13079H30.1335L28.5967 14.8583Z" fill="#616161"/>
<path d="M31.5839 8.40599V7H33.0444V8.40599H31.5839ZM31.6275 14.8583V9.19074H33.0117V14.8583H31.6275Z" fill="#616161"/>
<path d="M38.4627 10.455C38.2956 10.4187 38.1394 10.4005 37.994 10.4005C37.5145 10.4005 37.1512 10.5531 36.9041 10.8583C36.6571 11.1635 36.5335 11.545 36.5335 12.0027V14.8583H35.1603V9.19074H36.3156L36.4355 10.0409C36.5662 9.7139 36.7806 9.47775 37.0785 9.33242C37.3837 9.1871 37.7034 9.11444 38.0376 9.11444C38.1757 9.11444 38.3174 9.12534 38.4627 9.14714V10.455Z" fill="#616161"/>
<path d="M44.5855 12.0681C44.5782 12.119 44.5746 12.1662 44.5746 12.2098V12.4496H40.7817C40.7817 12.6676 40.8144 12.8747 40.8798 13.0708C40.9524 13.267 41.0578 13.4305 41.1958 13.5613C41.2976 13.6558 41.4138 13.7393 41.5446 13.812C41.6827 13.8774 41.8462 13.9101 42.0351 13.9101C42.2313 13.9101 42.3911 13.8919 42.5146 13.8556C42.6454 13.812 42.7617 13.7393 42.8634 13.6376C42.9942 13.5068 43.085 13.347 43.1359 13.158H44.4438C44.4293 13.3252 44.3711 13.5104 44.2694 13.7139C44.175 13.9101 44.0732 14.0736 43.9642 14.2044C43.7245 14.4877 43.4374 14.6912 43.1032 14.8147C42.769 14.9382 42.4202 15 42.0569 15C41.6645 15 41.323 14.9382 41.0324 14.8147C40.749 14.6839 40.4947 14.5132 40.2694 14.3025C39.986 14.0263 39.7681 13.6957 39.6155 13.3106C39.4701 12.9255 39.3975 12.5005 39.3975 12.0354C39.3975 11.5777 39.4629 11.1562 39.5937 10.7711C39.7317 10.3787 39.9388 10.0445 40.2149 9.76839C40.4256 9.55041 40.6799 9.37602 40.9779 9.24523C41.283 9.11444 41.6318 9.04905 42.0242 9.04905C42.4456 9.04905 42.838 9.13624 43.2013 9.31063C43.5646 9.47775 43.8625 9.73933 44.095 10.0954C44.3057 10.4078 44.4402 10.7275 44.4983 11.0545C44.5564 11.3742 44.5855 11.7121 44.5855 12.0681ZM43.2231 11.4578C43.2158 11.0436 43.0996 10.713 42.8743 10.4659C42.7799 10.3642 42.66 10.2843 42.5146 10.2262C42.3766 10.168 42.2095 10.139 42.0133 10.139C41.8026 10.139 41.6173 10.1789 41.4574 10.2589C41.2976 10.3388 41.1668 10.4441 41.0651 10.5749C40.9633 10.6985 40.8907 10.8292 40.8471 10.9673C40.8035 11.1054 40.778 11.2688 40.7708 11.4578H43.2231Z" fill="#616161"/>
<g clip-path="url(#clip0_228_263)">
<path d="M1 18H16" stroke="#616161" stroke-width="1.2" stroke-linecap="round" stroke-linejoin="round"/>
<path d="M1 16H16" stroke="#616161" stroke-width="1.2" stroke-linecap="round" stroke-linejoin="round"/>
<path d="M16 8H1L8.5 4L16 8Z" fill="#616161" stroke="#616161" stroke-linejoin="round"/>
<path d="M1 14V10H2.6346C2.92595 10 3.16149 10.0574 3.34122 10.1722C3.52095 10.2852 3.65244 10.4278 3.73568 10.6C3.81892 10.7722 3.86055 10.9463 3.86055 11.1222C3.86055 11.3463 3.80852 11.5324 3.70447 11.6806C3.6023 11.8287 3.46136 11.9278 3.28163 11.9778V11.8389C3.53703 11.8907 3.72811 12.0065 3.85487 12.1861C3.98352 12.3657 4.04784 12.5667 4.04784 12.7889C4.04784 13.0278 4.00244 13.238 3.91163 13.4194C3.82271 13.6009 3.68649 13.7435 3.50298 13.8472C3.31946 13.9491 3.08865 14 2.81054 14H1ZM1.78324 13.2889H2.73108C2.83514 13.2889 2.92784 13.2676 3.00919 13.225C3.09054 13.1806 3.15392 13.1194 3.19933 13.0417C3.24663 12.962 3.27028 12.8685 3.27028 12.7611C3.27028 12.6667 3.25041 12.5824 3.21068 12.5083C3.17095 12.4343 3.11041 12.3759 3.02906 12.3333C2.9496 12.2889 2.85027 12.2667 2.73108 12.2667H1.78324V13.2889ZM1.78324 11.5611H2.62325C2.71027 11.5611 2.78784 11.5463 2.85595 11.5167C2.92406 11.487 2.97798 11.4417 3.01771 11.3806C3.05744 11.3176 3.0773 11.237 3.0773 11.1389C3.0773 11.0167 3.03852 10.9139 2.96095 10.8306C2.88338 10.7472 2.77081 10.7056 2.62325 10.7056H1.78324V11.5611Z" fill="#616161"/>
<path d="M4.33008 14L5.57873 10H6.7309L7.97955 14H7.18495L6.07252 10.4722H6.22009L5.12468 14H4.33008ZM5.07927 13.1667V12.4611H7.23603V13.1667H5.07927Z" fill="#616161"/>
<path d="M8.48804 14V10H9.2713L11.0478 12.6667V10H11.831V14H11.0478L9.2713 11.3333V14H8.48804Z" fill="#616161"/>
<path d="M12.623 14V10H13.3949V11.8444L14.95 10H15.8922L14.1838 11.9722L16 14H15.0238L13.3949 12.1778V14H12.623Z" fill="#616161"/>
</g>
<defs>
<clipPath id="clip0_228_263">
<rect width="17" height="16" fill="white" transform="translate(0 3)"/>
</clipPath>
</defs>
</svg>
